<?xml version="1.0" encoding="UTF-8" standalone="no"?>
<svg
   version="1.0"
   width="900.000000pt"
   height="726.000000pt"
   viewBox="0 0 900.000000 726.000000"
   preserveAspectRatio="xMidYMid meet"
   id="svg878"
   sodipodi:docname="LAPBvj01.svg"
   inkscape:version="1.1.2 (b8e25be8, 2022-02-05)"
   xmlns:inkscape="http://www.inkscape.org/namespaces/inkscape"
   xmlns:sodipodi="http://sodipodi.sourceforge.net/DTD/sodipodi-0.dtd"
   xmlns="http://www.w3.org/2000/svg"
   xmlns:svg="http://www.w3.org/2000/svg">
  <defs
     id="defs882" />
  <sodipodi:namedview
     id="namedview880"
     pagecolor="#ffffff"
     bordercolor="#666666"
     borderopacity="1.0"
     inkscape:pageshadow="2"
     inkscape:pageopacity="0.0"
     inkscape:pagecheckerboard="0"
     inkscape:document-units="pt"
     showgrid="false"
     inkscape:zoom="0.43511308"
     inkscape:cx="591.80018"
     inkscape:cy="587.20367"
     inkscape:window-width="1512"
     inkscape:window-height="843"
     inkscape:window-x="0"
     inkscape:window-y="38"
     inkscape:window-maximized="1"
     inkscape:current-layer="g876" />
  <metadata
     id="metadata824">
Created by potrace 1.10, written by Peter Selinger 2001-2011
</metadata>
  <g
     transform="translate(0.000000,726.000000) scale(0.100000,-0.100000)"
     fill="#000000"
     stroke="none"
     id="g876">
    <path
       d="M8970 7245 c0 -8 7 -15 15 -15 8 0 15 7 15 15 0 8 -7 15 -15 15 -8 0 -15 -7 -15 -15z"
       id="path826" />
    <path
       d="M3922 6558 c-15 -15 -16 -199 -2 -307 10 -79 6 -94 -35 -112 -49 -22 -162 -106 -239 -179 -54 -51 -163 -185 -179 -220 -4 -8 -16 -28 -26 -45 -11 -16 -29 -50 -41 -75 -11 -25 -28 -58 -35 -73 -8 -16 -15 -35 -15 -42 0 -8 -6 -29 -14 -47 -36 -85 -46 -165 -46 -355 0 -191 13 -294 46 -355 8 -14 14 -34 14 -45 0 -10 7 -27 15 -37 19 -25 19 -55 1 -75 -24 -27 -73 -125 -81 -161 -4 -19 -11 -39 -15 -45 -30 -39 -50 -330 -30 -425 30 -140 90 -297 118 -307 20 -8 23 -1 48 109 39 177 46 203 55 212 5 6 9 21 9 34 0 22 33 88 50 102 4 3 12 14 18 25 10 19 11 19 18 1 4 -11 0 -29 -10 -46 -9 -16 -16 -37 -16 -48 0 -11 -7 -35 -15 -54 -19 -47 -29 -271 -16 -373 12 -94 34 -193 50 -223 6 -11 11 -29 11 -39 0 -10 9 -29 20 -43 20 -24 21 -25 35 -6 8 11 14 38 14 60 -1 23 4 59 10 81 6 22 13 53 16 69 3 15 9 25 13 22 6 -7 10 -36 27 -226 l7 -75 -63 -105 c-34 -58 -65 -107 -68 -110 -33 -28 -53 -135 -32 -169 13 -21 64 -18 87 5 31 31 84 101 84 111 0 20 61 57 135 79 16 5 40 24 52 43 21 31 21 35 8 62 -29 55 -17 73 99 152 22 16 51 37 63 49 20 19 22 19 31 1 5 -10 15 -52 21 -94 18 -115 43 -173 75 -177 24 -3 26 0 26 31 0 35 16 78 76 205 26 53 40 72 54 72 12 0 20 -7 20 -16 0 -24 84 -129 188 -234 52 -52 114 -117 138 -143 24 -27 49 -47 56 -44 8 2 13 21 13 45 0 42 16 58 25 25 8 -29 57 -100 82 -117 12 -9 37 -16 55 -16 59 0 66 55 18 142 -57 102 -58 106 -52 175 9 97 -17 136 -98 145 -89 11 -105 60 -86 282 21 262 29 335 40 368 12 39 32 171 39 248 2 30 8 60 14 67 5 7 12 41 15 75 2 35 7 74 10 88 l6 25 7 -25 c13 -40 11 -383 -2 -528 -9 -105 -9 -163 1 -270 7 -75 17 -150 21 -167 46 -156 52 -173 118 -303 50 -97 64 -115 86 -106 12 5 16 13 11 28 -3 11 -10 44 -15 71 -6 28 -14 70 -20 95 -12 58 -12 264 0 355 12 85 33 205 55 305 8 41 18 88 22 104 4 19 25 42 67 74 144 109 277 265 351 412 20 41 43 86 50 100 7 14 16 40 20 57 3 18 11 35 16 38 5 4 9 20 9 36 0 16 7 46 16 67 24 57 25 444 1 489 -12 23 -16 53 -15 110 1 91 -16 134 -82 197 -22 21 -40 47 -40 56 0 10 -3 20 -7 22 -13 5 -83 112 -83 125 0 7 13 39 29 70 44 87 63 158 69 254 6 111 -2 155 -34 175 -23 15 -26 15 -58 -6 -18 -13 -44 -39 -57 -59 -13 -20 -47 -69 -76 -108 -29 -40 -53 -77 -53 -82 0 -6 -10 -17 -22 -25 -20 -14 -24 -13 -57 13 -102 78 -284 162 -395 182 -26 4 -64 13 -83 20 -56 18 -380 15 -427 -5 -21 -9 -55 -16 -76 -16 -21 0 -43 -7 -50 -15 -32 -39 -64 -5 -90 95 -26 99 -35 129 -53 170 -27 59 -42 71 -65 48z m58 -139 c0 -16 7 -46 15 -66 8 -19 15 -45 15 -57 0 -11 7 -30 15 -40 8 -11 15 -27 15 -37 0 -9 7 -30 15 -45 8 -16 15 -36 15 -44 1 -17 28 -95 54 -152 21 -48 20 -56 -5 -103 -26 -52 -34 -151 -19 -245 22 -133 23 -198 4 -259 -9 -31 -20 -58 -23 -61 -3 -3 -15 -22 -25 -43 -21 -40 -49 -62 -66 -52 -15 10 -12 156 4 187 8 15 17 40 21 57 4 17 11 33 16 36 14 9 11 102 -6 154 -33 106 -37 130 -30 163 13 58 17 228 6 242 -6 7 -15 41 -21 77 -5 35 -14 87 -19 114 -11 58 -14 199 -5 208 13 12 24 -4 24 -34z m1496 -145 c8 -29 -2 -145 -16 -189 -27 -88 -52 -160 -58 -170 -32 -50 -55 -196 -33 -209 5 -4 17 -30 26 -60 19 -59 18 -62 -45 -146 -41 -53 -51 -92 -34 -125 8 -15 14 -37 14 -49 0 -24 -91 -121 -108 -115 -6 2 -41 33 -79 69 -38 36 -109 101 -157 145 -119 107 -115 103 -122 131 -9 37 1 52 121 176 123 127 140 147 207 233 25 33 58 74 72 90 15 17 39 48 54 70 15 22 29 42 32 45 4 3 17 23 30 45 26 43 65 85 80 85 5 0 13 -12 16 -26z m-1081 -29 c6 -2 -19 -3 -55 -4 -37 0 -57 4 -47 8 17 6 79 4 102 -4z m270 5 c4 -6 -19 -9 -62 -8 l-68 1 50 7 c28 4 55 8 62 8 6 1 15 -2 18 -8z m-462 -30 c7 0 4 -5 -6 -11 -22 -13 -67 -1 -46 12 8 5 20 7 27 4 8 -3 19 -5 25 -5z m585 -7 c-10 -2 -26 -2 -35 0 -10 3 -2 5 17 5 19 0 27 -2 18 -5z m-84 -29 c21 -8 51 -14 66 -14 16 0 41 -6 57 -14 15 -7 44 -20 63 -28 137 -58 250 -126 250 -151 0 -7 -88 -110 -170 -197 -8 -9 -34 -37 -57 -63 -22 -26 -46 -47 -52 -47 -6 0 -11 14 -11 32 0 39 -21 101 -62 183 -35 71 -50 90 -103 131 -72 54 -119 69 -225 69 -106 0 -150 -15 -232 -80 -49 -39 -68 -44 -68 -16 0 10 -7 32 -15 47 -8 16 -15 36 -15 45 0 8 -5 20 -12 27 -9 9 -8 17 2 37 11 21 21 25 57 25 25 0 54 5 66 12 51 28 382 29 461 2z m-736 -204 c3 -42 -1 -82 -8 -100 -17 -42 -15 -149 4 -185 9 -16 16 -42 16 -57 0 -15 4 -38 10 -52 7 -21 3 -45 -20 -114 -41 -122 -45 -156 -25 -231 9 -35 14 -69 12 -75 -3 -6 -38 -33 -78 -61 -41 -27 -101 -70 -134 -95 -75 -56 -261 -241 -270 -269 -3 -12 -12 -21 -18 -21 -16 0 -47 56 -47 83 0 12 -7 44 -15 71 -18 60 -21 398 -4 443 6 15 14 46 19 68 12 56 47 152 71 195 4 8 18 35 30 58 58 117 190 262 339 375 102 78 112 75 118 -33z m638 30 c95 -52 140 -114 193 -265 22 -62 29 -165 11 -165 -9 0 -34 13 -68 36 -2 1 -5 24 -6 51 -3 56 -21 88 -99 174 -31 35 -63 72 -72 82 -18 21 -34 22 -41 2 -6 -15 62 -115 78 -115 15 0 98 -122 98 -144 0 -13 -8 -29 -17 -38 -72 -63 -100 -99 -117 -149 -27 -82 -11 -206 40 -304 12 -22 41 -78 66 -125 73 -141 104 -241 115 -381 10 -120 5 -349 -8 -349 -16 0 -49 64 -49 96 0 29 -46 129 -90 199 -11 17 -24 39 -30 50 -13 26 -32 56 -45 70 -21 23 -51 96 -90 213 -15 45 -17 78 -12 215 3 89 10 178 16 198 6 20 12 101 14 180 2 151 2 153 -51 256 -31 61 -109 133 -144 133 -31 0 -20 -22 36 -74 51 -48 96 -115 96 -144 0 -7 7 -35 16 -63 9 -27 14 -55 11 -64 -9 -21 -98 -75 -124 -75 -36 0 -83 82 -83 145 0 28 -7 68 -15 90 -19 54 -19 114 1 136 10 11 14 25 9 36 -6 17 -7 17 -19 1 -7 -10 -18 -18 -23 -18 -17 0 -21 -83 -9 -191 13 -110 39 -179 83 -221 21 -19 27 -20 68 -11 33 7 49 7 61 -2 29 -21 11 -47 -59 -84 -78 -42 -92 -59 -106 -127 -20 -100 -30 -125 -71 -186 -53 -78 -80 -109 -244 -278 -145 -150 -164 -172 -219 -245 -20 -27 -41 -55 -45 -61 -28 -33 -132 -221 -132 -238 0 -11 -6 -27 -13 -35 -7 -9 -23 -41 -36 -71 -33 -78 -37 -88 -56 -150 -10 -30 -24 -73 -31 -95 -8 -23 -14 -57 -14 -77 0 -41 -8 -68 -20 -68 -18 0 -40 33 -40 58 0 15 -7 45 -15 68 -22 65 -29 274 -11 374 19 115 28 143 66 225 53 115 118 203 240 326 114 116 192 181 301 253 50 32 156 129 184 167 29 40 43 67 49 97 4 17 12 34 17 37 15 10 11 198 -6 238 -20 49 -21 206 0 233 8 10 15 27 15 37 0 10 7 20 15 23 8 4 15 12 15 19 0 13 52 57 100 84 107 61 216 64 316 11z m559 29 c10 -14 1 -21 -19 -13 -9 3 -13 10 -10 15 7 12 21 11 29 -2z m285 -304 c0 -7 7 -15 15 -19 8 -3 15 -17 15 -31 0 -16 6 -25 15 -25 19 0 20 -34 2 -48 -9 -8 -12 -29 -9 -69 3 -50 1 -61 -19 -84 -13 -14 -37 -42 -53 -62 -32 -40 -52 -47 -60 -19 -9 26 8 74 42 121 17 23 33 55 37 71 3 15 15 36 26 46 23 20 25 44 4 44 -8 0 -15 7 -15 15 0 9 -7 27 -16 40 -9 13 -13 29 -9 35 8 13 25 3 25 -15z m120 -159 c0 -7 7 -19 15 -26 17 -14 21 -90 5 -90 -6 0 -15 12 -20 28 -6 15 -15 35 -20 44 -15 26 -12 58 5 58 8 0 15 -6 15 -14z m-795 -20 c11 -8 50 -42 86 -77 94 -90 142 -134 234 -213 90 -78 104 -94 105 -118 0 -28 25 -21 53 15 14 17 51 59 83 92 67 70 144 169 144 184 0 17 41 34 52 23 17 -17 1 -54 -54 -127 -29 -39 -58 -79 -65 -90 -7 -11 -31 -51 -55 -89 -24 -38 -50 -80 -59 -95 -21 -36 -68 -40 -111 -9 -42 30 -53 39 -183 150 -178 150 -224 178 -280 164 -21 -5 -25 -12 -25 -42 0 -38 35 -98 51 -89 12 8 12 52 -1 60 -16 10 -11 25 8 25 32 0 82 -31 87 -53 2 -12 6 -49 9 -82 7 -91 26 -196 42 -232 8 -17 14 -34 14 -37 0 -3 17 -34 38 -68 48 -80 99 -184 108 -223 4 -16 11 -35 15 -41 29 -36 34 -377 8 -479 -74 -291 -92 -435 -85 -657 5 -154 4 -178 -9 -178 -8 0 -15 9 -15 20 0 10 -6 34 -14 52 -23 55 -37 106 -47 166 -5 31 -14 80 -19 107 -8 34 -9 169 -5 415 6 365 3 430 -29 620 -20 112 -45 202 -82 287 -8 17 -14 35 -14 40 0 9 -56 120 -110 218 -66 119 -69 259 -8 338 26 32 35 37 72 37 23 0 50 -6 61 -14z m-317 -57 c-5 -35 -28 -36 -28 -1 0 16 3 32 7 35 11 12 25 -9 21 -34z m-1091 -116 c-3 -10 -5 -2 -5 17 0 19 2 27 5 18 2 -10 2 -26 0 -35z m2233 6 c0 -11 -6 -22 -13 -25 -11 -4 -14 -51 -13 -232 0 -192 -3 -233 -17 -266 -9 -21 -17 -53 -17 -70 0 -17 -7 -40 -15 -50 -8 -11 -15 -31 -15 -44 0 -13 -7 -30 -15 -38 -8 -9 -15 -24 -15 -33 0 -10 -7 -24 -15 -31 -8 -7 -15 -16 -15 -21 0 -27 -136 -204 -218 -284 -82 -81 -121 -89 -98 -21 14 40 34 66 51 66 7 0 25 20 39 45 17 29 34 45 46 45 24 0 37 23 51 89 9 43 18 57 57 88 26 20 59 50 75 66 51 55 30 134 -60 225 -29 30 -53 58 -53 63 0 5 11 9 24 9 57 0 118 102 97 162 -18 51 -13 100 14 140 14 21 30 49 35 63 7 18 17 25 35 25 20 0 25 5 25 23 0 13 3 27 6 30 11 11 24 -3 24 -24z m-1175 -230 c1 -212 2 -227 23 -272 13 -26 20 -52 17 -57 -9 -14 -88 -12 -107 3 -8 6 -18 23 -21 36 -6 23 12 171 28 233 4 16 4 35 1 44 -10 25 -39 -3 -32 -31 8 -31 -2 -37 -30 -18 -22 14 -24 22 -24 101 l0 85 42 39 c23 21 47 38 55 38 7 0 16 7 20 15 3 9 11 14 17 12 8 -3 11 -71 11 -228z m1195 105 c0 -41 -4 -63 -10 -59 -15 9 -10 125 6 125 2 0 4 -30 4 -66z m-2278 -68 l-8 -51 -8 57 c-4 32 -4 68 0 80 7 22 8 22 15 -6 5 -17 5 -53 1 -80z m1633 -21 c32 -27 75 -65 95 -82 21 -18 40 -33 44 -33 11 0 66 -43 66 -52 0 -13 -26 -9 -67 8 -41 18 -158 71 -183 83 -17 9 -53 110 -45 129 6 16 17 10 90 -53z m450 -85 c-10 -52 -73 -110 -120 -110 -24 0 -18 17 20 59 19 21 35 41 35 44 0 3 10 22 22 43 20 34 22 35 35 18 9 -13 12 -31 8 -54z m-1155 7 c21 -112 26 -157 19 -180 -9 -32 1 -67 32 -105 14 -18 18 -34 14 -52 -8 -32 -79 -100 -136 -129 -24 -13 -63 -36 -87 -52 -24 -16 -45 -29 -48 -29 -10 0 -139 -66 -142 -72 -2 -5 -8 -8 -14 -8 -10 0 -128 -68 -138 -79 -3 -4 -23 -18 -45 -33 -22 -15 -65 -52 -97 -83 -31 -30 -59 -55 -62 -55 -3 0 -6 8 -6 18 0 17 139 237 185 291 62 75 162 186 231 257 165 168 230 250 249 311 5 19 10 21 26 13 10 -6 19 -12 19 -13z m718 -67 c96 -49 124 -60 154 -60 16 0 59 -10 96 -22 54 -17 77 -32 120 -75 76 -79 102 -153 65 -184 -10 -8 -33 -23 -52 -33 -64 -36 -92 -76 -101 -146 -4 -37 -9 -46 -28 -48 -16 -3 -30 -17 -45 -48 -34 -71 -51 -56 -60 51 -9 112 -40 211 -95 310 -9 17 -26 48 -38 70 -64 114 -96 185 -91 199 8 21 8 21 75 -14z m-1647 -104 l-8 -31 -8 28 c-4 15 -4 49 0 75 l8 47 8 -44 c5 -25 5 -59 0 -75z m2278 17 c-1 -61 -2 -64 -10 -33 -8 32 -4 100 6 100 3 0 5 -30 4 -67z m-2239 -131 c0 -9 -5 -24 -10 -32 -7 -11 -10 -5 -10 23 0 23 4 36 10 32 6 -3 10 -14 10 -23z m2212 -40 l-10 -27 -7 27 c-4 16 -4 36 0 45 12 32 28 -12 17 -45z m-1155 -9 c13 -14 23 -34 23 -43 0 -9 4 -20 10 -26 13 -13 31 -94 37 -166 5 -62 0 -72 -75 -128 -19 -14 -39 -30 -45 -35 -39 -36 -120 -95 -124 -91 -4 4 25 55 37 66 4 3 10 12 13 20 4 8 16 29 26 45 53 82 66 119 65 186 -1 36 -7 88 -14 116 -21 80 3 108 47 56z m67 11 c9 -3 16 -17 16 -29 0 -13 5 -27 11 -30 5 -4 14 -17 20 -28 5 -12 13 -29 19 -37 30 -47 90 -151 90 -158 0 -4 9 -24 20 -44 11 -20 21 -56 22 -80 l3 -42 -45 -8 c-24 -4 -58 -14 -76 -23 -18 -8 -39 -15 -48 -15 -9 0 -16 -4 -16 -9 0 -5 -12 -12 -27 -15 -31 -7 -37 -10 -196 -87 -59 -29 -110 -56 -113 -60 -8 -13 -44 -11 -44 2 0 14 23 34 145 125 55 41 105 78 110 83 6 4 35 25 65 46 83 58 89 69 89 150 0 42 -5 80 -14 95 -8 14 -14 37 -15 51 0 15 -7 32 -15 39 -8 7 -15 23 -15 36 0 13 -4 24 -10 24 -5 0 -10 5 -10 10 0 11 11 13 34 4z m-1094 -70 c0 -26 -17 -33 -26 -9 -8 20 3 48 16 40 5 -3 10 -17 10 -31z m2153 -6 c-10 -21 -12 -21 -18 -5 -10 25 2 54 17 39 8 -8 8 -18 1 -34z m-1195 -77 c2 -44 -2 -70 -12 -87 -9 -13 -16 -28 -16 -33 0 -9 -45 -93 -83 -156 -7 -11 -43 -54 -82 -96 -38 -42 -78 -94 -88 -115 -10 -22 -25 -52 -33 -67 -8 -16 -14 -33 -14 -39 0 -6 -19 -40 -43 -77 -55 -84 -147 -274 -147 -303 0 -8 -4 -18 -9 -23 -14 -16 -71 -191 -71 -219 0 -30 -39 -63 -52 -43 -10 16 -9 269 2 327 19 104 31 154 39 164 4 6 18 38 29 71 11 33 27 74 35 90 8 17 30 62 48 100 36 76 126 225 192 320 40 57 126 145 142 145 9 0 84 58 113 88 34 36 47 24 50 -47z m1164 -3 c-13 -13 -26 8 -17 30 6 16 7 16 17 -1 7 -13 7 -22 0 -29z m-30 -60 c-15 -15 -26 -4 -18 18 5 13 9 15 18 6 9 -9 9 -15 0 -24z m-29 -54 c-4 -10 -9 -12 -15 -6 -12 12 -1 35 12 27 5 -3 6 -13 3 -21z m-1433 -24 c0 -9 -20 -38 -107 -155 -5 -6 -19 -32 -33 -58 -13 -26 -28 -47 -31 -47 -4 0 -10 -12 -13 -26 -4 -14 -18 -43 -31 -65 -14 -21 -25 -44 -25 -50 0 -6 -7 -23 -14 -37 -24 -44 -43 -92 -75 -192 -50 -157 -61 -197 -61 -227 -1 -15 -7 -39 -15 -53 -8 -14 -14 -52 -15 -87 0 -56 -2 -63 -19 -63 -27 0 -34 15 -42 80 -3 30 -12 89 -19 130 -7 44 -10 116 -7 175 4 94 9 122 37 235 6 25 15 61 19 80 16 75 72 142 178 213 54 37 104 67 111 67 7 0 12 4 12 9 0 5 10 13 21 16 12 4 40 20 63 36 43 30 66 36 66 19z m1402 -22 c-15 -15 -24 -6 -16 16 5 12 10 14 17 7 8 -8 8 -14 -1 -23z m-22 -27 c0 -12 -20 -25 -27 -18 -7 7 6 27 18 27 5 0 9 -4 9 -9z m-30 -40 c0 -12 -20 -25 -27 -18 -7 7 6 27 18 27 5 0 9 -4 9 -9z m-43 -46 c-10 -7 -17 -17 -17 -24 0 -6 -7 -11 -16 -11 -16 0 -12 10 15 42 8 9 19 14 24 11 6 -3 3 -11 -6 -18z m-626 -166 c-2 -75 -9 -147 -16 -164 -18 -44 -38 -49 -359 -89 -93 -12 -101 -14 -127 -45 -16 -19 -30 -51 -34 -77 -3 -24 -10 -46 -16 -49 -5 -4 -9 -12 -9 -20 0 -8 -14 -44 -32 -81 -22 -46 -59 -96 -123 -163 -50 -53 -102 -112 -115 -131 -32 -45 -48 -122 -36 -176 14 -66 3 -90 -46 -103 -65 -16 -103 -44 -141 -104 -48 -75 -97 -109 -97 -67 0 21 29 76 84 160 51 77 101 183 132 281 15 46 31 88 35 94 5 5 9 16 9 25 0 8 7 28 15 44 8 15 15 33 15 38 0 5 9 30 21 56 11 26 24 56 28 67 22 57 117 245 124 245 4 0 7 5 7 11 0 6 17 33 38 59 37 49 113 94 252 151 30 12 78 32 107 45 28 13 55 24 58 24 3 0 25 8 48 19 23 10 68 29 100 41 31 13 57 30 57 38 0 7 6 12 13 9 9 -3 11 -37 8 -138z m549 86 c0 -8 -7 -15 -15 -15 -8 0 -15 -7 -15 -15 0 -8 -4 -15 -10 -15 -5 0 -23 -14 -40 -30 -17 -17 -36 -28 -41 -24 -9 5 33 53 49 55 4 0 18 13 32 29 28 32 40 37 40 15z m-575 -344 c3 -10 0 -31 -7 -47 -8 -18 -14 -100 -18 -212 -3 -108 -9 -183 -15 -185 -5 -1 -12 9 -13 23 -2 13 -10 33 -18 44 -8 11 -14 30 -14 42 0 51 -83 197 -147 258 -48 46 -42 50 89 66 54 7 101 16 104 21 9 16 32 10 39 -10z m-285 -85 c76 -80 170 -235 170 -280 0 -30 65 -152 103 -195 27 -29 76 -51 115 -51 45 0 52 -15 52 -116 0 -51 4 -95 9 -98 5 -3 25 -38 45 -78 64 -125 3 -115 -81 15 -25 39 -66 101 -89 137 -24 36 -105 126 -180 200 -155 152 -334 362 -334 391 0 39 32 98 58 108 58 21 88 14 132 -33z m-171 -179 c34 -50 73 -156 74 -204 1 -18 -6 -40 -15 -50 -23 -27 -75 -128 -83 -162 -3 -16 -13 -35 -21 -42 -32 -26 -38 5 -38 193 0 150 4 193 19 238 19 59 24 70 30 70 2 0 17 -19 34 -43z m-131 -191 c-11 -42 -20 -55 -63 -84 -27 -19 -71 -52 -98 -74 -37 -31 -48 -36 -53 -24 -7 19 5 35 126 164 101 107 111 109 88 18z m282 20 c54 -61 119 -206 92 -206 -13 0 -82 99 -103 146 -11 24 -24 46 -29 49 -13 8 -13 45 0 45 6 0 24 -15 40 -34z m206 -208 c61 -65 104 -124 104 -143 0 -9 7 -29 16 -45 21 -34 13 -68 -11 -48 -22 18 -155 196 -155 207 0 5 -6 14 -14 20 -8 6 -16 22 -19 34 -2 12 -8 31 -13 41 -7 19 -6 19 22 -1 16 -12 47 -41 70 -65z"
       id="path828" />
    <path
       d="M1196 2288 c-3 -7 -7 -31 -9 -53 -3 -22 -8 -48 -12 -57 -6 -14 -2 -18 16 -18 31 0 59 48 59 101 0 35 -3 39 -25 39 -14 0 -27 -6 -29 -12z"
       id="path830" />
    <path
       d="M375 2259 c-55 -29 -78 -52 -103 -103 -45 -89 -19 -202 62 -272 50 -43 115 -57 190 -42 46 9 64 19 105 60 39 39 52 60 60 99 24 110 -20 207 -116 259 -52 28 -145 27 -198 -1z m144 -25 c37 -8 106 -70 121 -109 16 -41 12 -107 -9 -145 -10 -19 -37 -50 -60 -67 -64 -50 -152 -46 -211 9 -86 79 -88 184 -5 265 52 49 93 61 164 47z"
       id="path832" />
    <path
       d="M1413 2258 c-37 -41 -42 -60 -28 -95 16 -38 39 -61 90 -93 92 -55 117 -114 70 -164 -33 -35 -84 -35 -131 1 -24 18 -38 23 -45 16 -15 -15 -3 -45 23 -62 98 -61 221 -4 221 103 0 49 -21 82 -73 117 -86 57 -110 80 -110 108 0 48 45 67 86 36 24 -18 54 -19 54 -2 0 7 -9 23 -20 35 -30 31 -108 31 -137 0z"
       id="path834" />
    <path
       d="M1988 2269 c-16 -9 -18 -30 -18 -209 0 -187 1 -200 19 -210 25 -13 121 -13 141 0 24 17 -14 40 -54 33 -43 -7 -66 16 -66 68 0 32 4 39 23 44 12 2 29 4 37 3 33 -3 50 3 50 17 0 15 -40 30 -62 22 -7 -2 -21 0 -30 5 -15 7 -18 23 -18 88 0 89 14 114 56 104 51 -13 103 23 58 40 -25 10 -117 6 -136 -5z"
       id="path836" />
    <path
       d="M2824 2270 c-26 -10 -95 -77 -117 -112 -12 -19 -17 -49 -17 -100 1 -63 4 -78 28 -112 42 -61 92 -96 150 -105 70 -11 149 5 158 31 10 33 -10 43 -49 24 -88 -41 -192 4 -232 100 -35 84 -2 168 88 223 32 20 47 23 89 18 27 -4 56 -11 64 -18 15 -12 44 -6 44 11 0 5 -9 19 -20 30 -16 16 -33 20 -92 19 -40 0 -82 -4 -94 -9z"
       id="path838" />
    <path
       d="M4565 2266 c-18 -13 -18 -14 3 -25 11 -6 31 -10 44 -8 l23 2 5 -190 5 -190 25 0 25 0 0 180 c0 99 4 186 8 193 5 7 18 10 31 6 29 -7 58 22 35 37 -23 14 -182 11 -204 -5z"
       id="path840" />
    <path
       d="M4890 2270 c-21 -13 -19 -408 2 -421 7 -5 41 -9 76 -9 47 0 64 4 69 15 8 23 0 27 -58 29 -51 1 -53 2 -62 35 -12 49 5 83 41 81 48 -4 62 0 62 14 0 17 -33 30 -57 22 -22 -7 -40 4 -43 24 -1 8 -2 50 -1 92 l1 77 58 3 c49 3 57 6 57 23 0 18 -8 20 -65 23 -36 1 -72 -2 -80 -8z"
       id="path842" />
    <path
       d="M5158 2269 c-16 -9 -18 -30 -18 -208 0 -226 1 -228 72 -216 146 25 223 185 151 316 -26 49 -99 109 -132 109 -9 0 -25 2 -36 5 -11 3 -28 0 -37 -6z m120 -74 c56 -49 79 -122 56 -186 -18 -54 -37 -77 -88 -108 -57 -36 -62 -24 -60 160 1 85 3 157 3 162 2 19 52 3 89 -28z"
       id="path844" />
    <path
       d="M5768 2273 c-15 -4 -17 -25 -20 -196 -3 -217 -2 -227 22 -227 25 0 32 24 24 82 -8 58 1 68 58 68 20 0 39 4 42 9 9 15 -20 32 -51 29 -48 -3 -53 6 -53 97 0 95 8 107 68 98 39 -6 68 13 51 33 -11 14 -100 18 -141 7z"
       id="path846" />
    <path
       d="M6663 2274 c-20 -9 -18 -424 1 -424 19 0 27 24 19 60 -9 46 20 39 59 -15 25 -33 40 -44 61 -45 15 0 27 4 27 9 0 5 -27 36 -61 69 l-61 60 45 30 c81 56 97 111 53 180 -36 57 -104 93 -143 76z m88 -70 c35 -37 33 -113 -4 -149 -14 -15 -34 -25 -44 -23 -15 3 -18 15 -19 83 0 44 1 88 3 98 6 25 36 21 64 -9z"
       id="path848" />
    <path
       d="M6921 2270 c-18 -11 -8 -48 29 -109 17 -26 30 -52 30 -56 0 -5 6 -16 13 -24 27 -33 39 -92 32 -156 -6 -57 -4 -65 13 -74 11 -6 22 -7 26 -4 3 3 6 43 6 88 0 79 2 85 51 181 28 54 55 103 60 109 5 5 9 17 9 28 0 13 -6 18 -22 15 -15 -2 -29 -19 -46 -53 -30 -64 -49 -105 -56 -128 -9 -29 -24 -11 -71 88 -48 101 -54 108 -74 95z"
       id="path850" />
    <path
       d="M8184 2269 c-31 -49 -194 -385 -194 -400 0 -12 7 -19 18 -19 11 0 28 24 52 73 l35 72 100 0 100 0 35 -73 c28 -57 39 -72 55 -70 27 4 22 39 -14 98 -33 54 -131 254 -131 266 0 5 -11 22 -23 38 -19 24 -26 27 -33 15z m51 -143 c20 -41 34 -79 30 -85 -3 -6 -35 -11 -71 -11 -69 0 -89 15 -66 49 6 9 22 40 36 69 14 28 27 52 29 52 3 0 21 -33 42 -74z"
       id="path852" />
    <path
       d="M8692 2267 c-9 -11 -12 -69 -10 -213 3 -180 5 -199 21 -202 14 -3 17 4 17 42 0 34 4 46 15 46 8 0 15 -4 15 -8 0 -4 18 -27 39 -50 26 -28 45 -40 55 -36 32 12 16 41 -57 98 -20 16 -37 35 -37 41 0 6 18 21 40 34 38 21 80 81 80 114 0 7 -9 32 -20 54 -30 62 -131 113 -158 80z m86 -57 c28 -23 43 -70 34 -103 -11 -37 -49 -79 -69 -75 -15 3 -18 16 -21 87 -4 117 6 133 56 91z"
       id="path854" />
    <path
       d="M59 2263 c0 -5 0 -95 0 -202 0 -130 4 -198 12 -207 13 -16 125 -19 149 -4 24 15 0 28 -55 32 l-50 3 -3 193 -2 192 -25 0 c-14 0 -25 -3 -26 -7z"
       id="path856" />
    <path
       d="M800 2103 c0 -149 2 -172 20 -200 39 -65 107 -86 173 -54 68 33 77 60 80 244 1 87 -1 163 -4 169 -4 6 -14 8 -23 5 -14 -5 -16 -28 -16 -157 0 -160 -9 -198 -49 -220 -35 -18 -76 -12 -102 16 -23 24 -24 33 -29 192 -5 164 -5 167 -27 170 l-23 3 0 -168z"
       id="path858" />
    <path
       d="M2246 2263 c-3 -4 -6 -98 -6 -210 0 -189 1 -204 18 -201 15 3 17 18 16 161 -1 86 2 157 5 157 11 0 32 -24 157 -178 64 -79 121 -141 128 -139 8 2 12 65 14 205 2 177 1 203 -13 208 -9 4 -19 3 -23 0 -3 -4 -5 -76 -3 -161 1 -88 -1 -155 -7 -155 -5 0 -23 20 -41 45 -17 24 -37 50 -44 57 -36 39 -116 137 -131 160 -20 30 -61 60 -70 51z"
       id="path860" />
    <path
       d="M3145 2258 c-3 -7 -4 -101 -2 -208 l2 -195 25 0 c24 0 25 3 26 60 1 33 2 66 3 73 1 16 226 17 237 1 4 -6 7 -39 8 -73 1 -58 2 -61 26 -61 l25 0 0 205 0 205 -25 0 c-25 0 -25 0 -30 -114 l-5 -114 -113 0 c-62 0 -115 3 -119 7 -4 3 -7 55 -7 114 -1 103 -2 107 -24 110 -12 2 -24 -3 -27 -10z"
       id="path862" />
    <path
       d="M3782 2258 c-7 -7 -12 -20 -12 -29 0 -10 -4 -20 -9 -23 -5 -4 -19 -27 -31 -54 -20 -44 -35 -74 -112 -225 -32 -64 -32 -95 1 -78 18 10 52 70 66 118 8 29 31 35 135 31 l85 -3 22 -45 c13 -25 23 -50 23 -56 0 -6 11 -20 23 -33 21 -19 25 -20 37 -6 10 12 8 23 -14 62 -32 61 -128 255 -152 310 -19 43 -40 53 -62 31z m67 -139 c19 -43 29 -75 23 -81 -5 -5 -38 -8 -73 -6 l-64 3 3 30 c2 17 10 37 18 46 8 8 14 23 14 32 0 16 25 47 39 47 4 0 22 -32 40 -71z"
       id="path864" />
    <path
       d="M4127 2263 c-2 -5 -5 -97 -6 -206 -2 -172 0 -198 14 -203 9 -4 18 -4 21 -1 3 3 5 75 5 161 -1 86 2 156 7 156 5 0 22 -19 39 -42 35 -49 184 -234 210 -261 9 -9 22 -16 27 -14 7 2 12 77 14 211 2 194 1 207 -15 204 -16 -3 -18 -18 -17 -161 0 -86 -4 -157 -9 -157 -12 0 -29 18 -89 96 -46 60 -73 93 -113 138 -5 6 -23 28 -38 49 -27 36 -42 45 -50 30z"
       id="path866" />
    <path
       d="M6119 2215 c-12 -30 -26 -55 -31 -55 -4 0 -8 -6 -8 -13 0 -11 -61 -136 -113 -232 -23 -40 -22 -65 2 -65 14 0 29 20 55 75 l36 75 93 0 c77 0 97 -3 109 -17 17 -20 58 -106 58 -122 0 -11 42 -15 52 -5 3 3 -20 58 -53 122 -32 64 -77 156 -100 205 -52 106 -67 111 -100 32z m88 -102 c36 -72 29 -82 -54 -80 -54 2 -68 5 -71 18 -2 9 4 24 13 32 8 9 15 18 15 20 0 2 10 26 21 53 20 45 22 47 36 28 8 -10 26 -42 40 -71z"
       id="path868" />
    <path
       d="M6475 2258 c-3 -8 -4 -101 -3 -208 l3 -195 25 0 25 0 0 205 0 205 -23 3 c-12 2 -24 -3 -27 -10z"
       id="path870" />
    <path
       d="M7540 2067 c0 -161 3 -207 14 -216 23 -20 36 11 34 80 l-3 64 105 3 c151 4 148 5 152 -75 2 -54 6 -68 20 -71 15 -3 17 16 20 195 2 109 2 204 0 211 -2 6 -13 12 -23 12 -18 0 -19 -9 -19 -115 0 -85 -3 -115 -12 -115 -96 -4 -227 -2 -237 4 -8 6 -11 38 -9 114 3 104 2 107 -19 110 l-23 3 0 -204z"
       id="path872" />
    <path
       d="M8510 2060 l0 -211 23 3 c22 3 22 3 22 208 0 205 0 205 -22 208 l-23 3 0 -211z"
       id="path874" />
    <path
       style="fill:#7FFFD3;fill-opacity:1;stroke-width:0.762509"
       d="m 472.84017,587.87014 c -1.87697,-1.87697 -2.1735,-5.67762 -0.9142,-11.71726 0.92301,-4.42677 2.0561,-6.96468 5.27584,-11.81682 2.25521,-3.3986 6.94784,-10.94924 10.42806,-16.77919 l 6.32768,-10.59993 -0.93267,-10.75033 c -1.48489,-17.11542 -2.97439,-28.83604 -3.76508,-29.62671 -0.46677,-0.46678 -0.99302,-0.21901 -1.45473,0.68491 -1.19012,2.32999 -3.84101,15.50134 -4.32528,21.49084 -0.43086,5.3289 -2.02523,10.04453 -3.39608,10.04453 -0.85374,0 -4.65918,-5.53877 -4.65918,-6.78137 0,-0.53933 -1.02222,-3.95218 -2.2716,-7.58411 -4.5444,-13.21051 -6.84513,-28.49431 -6.86454,-45.60134 -0.0168,-14.78995 1.02662,-26.34705 2.98467,-33.05931 2.87407,-9.8524 3.74108,-12.62134 4.67335,-14.92508 0.96558,-2.38604 0.44591,-6.74117 -0.75039,-6.28872 -2.50447,0.94721 -10.6946,14.79697 -10.74123,18.16376 -0.0145,1.04845 -0.68828,3.36441 -1.49723,5.14657 -0.80895,1.78216 -3.37647,11.50108 -5.7056,21.5976 -4.1152,17.83897 -5.15509,21.29392 -6.40916,21.29392 -3.23787,0 -9.94991,-15.57178 -15.11886,-35.07543 -1.98697,-7.49731 -2.1187,-8.9517 -2.07185,-22.87528 0.0509,-15.13799 1.10049,-27.07805 2.98265,-33.93166 3.20682,-11.67721 8.22162,-23.27823 13.66774,-31.61842 3.20363,-4.90603 3.3329,-6.56131 0.9191,-11.76843 -0.99147,-2.1388 -2.38629,-5.60437 -3.09962,-7.70127 -0.71332,-2.0969 -1.9744,-5.6438 -2.80238,-7.88201 -3.05247,-8.25135 -3.96995,-18.05183 -3.9734,-42.4436 -0.004,-25.50903 0.78077,-32.74482 4.7664,-43.96971 1.24123,-3.49575 2.64932,-7.88185 3.12907,-9.74688 0.99059,-3.85093 8.69794,-19.52057 14.08427,-28.63441 11.79497,-19.9575 35.68312,-43.47462 55.14736,-54.29082 2.79569,-1.55355 5.52925,-3.3557 6.07457,-4.00478 0.77069,-0.9173 0.8556,-3.21793 0.38126,-10.33024 -0.33564,-5.03256 -0.61026,-16.42983 -0.61026,-25.32726 0,-14.455903 0.14351,-16.320536 1.3487,-17.524788 1.01613,-1.015329 1.67422,-1.154641 2.66878,-0.564961 2.41355,1.43099 6.99091,12.008509 10.37419,23.973019 1.83816,6.5004 3.86839,13.07556 4.51163,14.61147 2.40047,5.73178 6.10315,7.46352 9.37861,4.38638 1.19887,-1.12627 3.36529,-1.7976 7.42913,-2.30213 3.15521,-0.39172 7.21955,-1.23658 9.03189,-1.87747 7.38218,-2.61054 48.82831,-3.42155 56.28955,-1.10146 1.46783,0.45642 5.89868,1.50659 9.84634,2.33371 15.53533,3.25497 35.18238,11.76993 50.13777,21.72951 4.69351,3.12566 9.20622,5.68302 10.02824,5.68302 2.16263,0 4.35976,-2.09058 7.21236,-6.86258 4.44774,-7.44049 17.08309,-24.7511 20.45555,-28.02443 4.67965,-4.54208 7.08283,-5.4033 9.69149,-3.47313 1.12658,0.83358 2.54836,2.51412 3.15949,3.73455 1.52977,3.0549 1.95005,16.22868 0.80736,25.30697 -1.16795,9.27893 -2.88945,14.9419 -8.08225,26.58696 -2.27158,5.0941 -4.1301,9.89791 -4.13004,10.67513 1.1e-4,1.52232 6.65762,12.39222 9.50529,15.51956 0.9547,1.04845 1.95262,2.82802 2.21762,3.9546 0.26499,1.12657 3.10567,5.05769 6.31261,8.7358 8.34528,9.57138 9.37047,12.19236 10.16889,25.99752 0.42194,7.29573 1.10657,12.46378 1.94573,14.68773 2.88419,7.64369 2.6709,54.04796 -0.29352,63.8583 -0.8557,2.83184 -1.79243,6.95792 -2.08161,9.16907 -0.28918,2.21117 -0.81327,4.19797 -1.16464,4.41513 -0.35138,0.21716 -1.36867,2.86871 -2.26065,5.89234 -2.04158,6.92042 -11.05588,24.63151 -17.25887,33.90975 -9.6986,14.50689 -22.01372,27.85868 -36.76114,39.85559 -4.36627,3.55194 -8.56618,7.31588 -9.33314,8.36433 -1.4939,2.04222 -5.7308,21.25879 -9.9441,45.10178 -2.41362,13.65858 -2.47293,14.52979 -2.48418,36.48672 l -0.0115,22.49402 2.81791,12.5814 c 2.55275,11.39754 2.70304,12.66831 1.59719,13.50499 -0.82517,0.62433 -1.66205,0.68741 -2.58275,0.19467 -3.42298,-1.83193 -15.97369,-26.96276 -20.50839,-41.06481 -4.00286,-12.44816 -5.00532,-17.53023 -6.55957,-33.25434 -1.31993,-13.35347 -1.25572,-21.84413 0.40079,-52.99439 1.35447,-25.47062 0.6378,-56.11992 -1.35896,-58.11667 -1.06496,-1.06496 -1.43778,0.5616 -2.75473,12.01829 -0.62882,5.47033 -1.63088,11.13196 -2.22682,12.5814 -0.59593,1.44945 -1.83479,8.63752 -2.75304,15.97349 -0.91823,7.33598 -2.65711,18.14455 -3.86417,24.01905 -3.18805,15.51557 -7.38653,62.53027 -6.52373,73.05287 0.89013,10.85586 3.50582,14.41162 11.64338,15.82793 6.49638,1.13068 9.93943,2.86604 11.88128,5.98842 1.54374,2.48224 1.70264,3.70358 1.70264,13.08703 v 10.3493 l 5.20715,10.09747 c 6.08074,11.79147 7.24143,16.99359 4.42091,19.81411 -1.89892,1.89891 -5.77581,2.13666 -9.49588,0.58232 -3.34669,-1.39834 -8.10402,-6.95346 -11.51702,-13.44841 -1.54262,-2.9356 -3.13767,-5.33744 -3.54456,-5.33744 -1.07101,0 -2.22523,3.46541 -2.23875,6.7216 -0.0141,3.39678 -0.85874,4.91937 -2.40069,4.32767 -1.69865,-0.65183 -33.53864,-33.92335 -40.45718,-42.27614 -3.2836,-3.96431 -6.85947,-9.02547 -7.94637,-11.24702 -3.60698,-7.37238 -6.40233,-5.35363 -13.49706,9.74732 -5.68331,12.0968 -7.48601,17.12836 -8.03408,22.42411 -0.58117,5.61576 -2.01554,6.25876 -5.6793,2.54593 -2.92531,-2.96447 -5.17431,-9.54567 -6.99059,-20.45631 -1.80965,-10.87083 -3.20593,-15.25019 -4.86228,-15.25019 -0.76204,0 -2.03919,0.72531 -2.8381,1.61179 -0.79892,0.88649 -5.45085,4.48579 -10.33763,7.99845 -4.88678,3.51267 -9.77637,7.44593 -10.86576,8.74059 -2.32397,2.76189 -2.56084,6.0937 -0.75422,10.60889 1.5651,3.91158 0.99287,6.09271 -2.56965,9.79467 -2.05589,2.13635 -4.65759,3.64301 -9.33196,5.40422 -8.45269,3.1848 -11.95437,5.66915 -14.81543,10.51116 -3.23426,5.47362 -10.09765,13.5975 -12.3577,14.62724 -2.66755,1.21542 -6.82886,1.05583 -8.19913,-0.31443 z m 8.39806,-6.85874 c 1.38949,-1.05982 4.13831,-4.23377 6.10848,-7.05321 7.0334,-10.06527 11.24804,-13.43376 20.66543,-16.51654 6.78777,-2.22198 7.92254,-4.89855 6.2205,-14.67234 -0.59595,-3.42224 -0.61053,-6.15346 -0.0498,-9.33665 1.66755,-9.46688 4.06329,-13.07062 20.82151,-31.3203 3.65851,-3.98411 7.88738,-8.86699 9.39748,-10.85083 3.69581,-4.85521 8.41395,-13.8081 9.81836,-18.63075 0.63065,-2.16564 1.65449,-4.73911 2.27519,-5.71882 0.6207,-0.97971 1.5046,-3.59406 1.96422,-5.80966 1.68471,-8.12108 5.70286,-13.21728 11.5161,-14.60578 1.88721,-0.45077 11.35913,-1.843 21.0487,-3.09385 34.92292,-4.50828 36.13011,-5.01122 37.58776,-15.66014 1.07311,-7.83971 1.87099,-27.92839 1.26874,-31.94442 -0.61255,-4.0848 -1.61355,-4.36721 -4.82996,-1.36263 -1.29441,1.20916 -7.32459,4.20273 -13.99643,6.94827 -61.65664,25.37238 -63.41851,26.4008 -73.28627,42.7779 -7.08188,11.7535 -18.26281,35.41135 -23.24383,49.18185 -1.06188,2.93566 -2.87231,7.91103 -4.02318,11.05639 -1.15087,3.14535 -3.8781,10.69419 -6.06051,16.7752 -4.8541,13.52534 -11.91084,28.23027 -18.66192,38.88797 -7.27164,11.47951 -10.65517,18.52245 -10.05234,20.92432 0.62078,2.47339 2.29096,2.48066 5.51179,0.024 z m 176.42602,-5.94412 c 0,-2.54846 -5.45034,-14.69176 -8.54456,-19.03721 -1.41943,-1.99338 -1.68138,-3.75629 -2.13483,-14.36702 -0.60567,-14.17255 -0.85668,-14.71111 -7.15978,-15.36164 -6.35617,-0.65602 -11.46586,-3.25254 -15.65915,-7.9573 -4.46625,-5.01102 -11.88203,-18.99146 -13.09075,-24.67904 -2.35401,-11.0767 -19.43006,-36.6583 -27.70822,-41.50962 -5.47044,-3.20589 -11.96957,-2.20561 -16.25239,2.5014 -2.84724,3.12925 -5.20806,9.7444 -4.49356,12.5912 1.22397,4.87669 17.9084,24.62475 39.76132,47.06235 21.38839,21.96065 25.13227,26.41541 35.76526,42.55627 9.33784,14.17483 15.02414,20.73411 17.97461,20.73411 1.23832,0 1.54205,-0.49901 1.54205,-2.5335 z m -26.68782,-13.93872 c 0,-0.96949 -2.59465,-8.09142 -5.08139,-13.94767 -1.64045,-3.86326 -7.43032,-11.08329 -14.84246,-18.50872 -5.96645,-5.97712 -11.35474,-10.00546 -11.3292,-8.4698 0.0312,1.8761 3.32103,10.71842 4.47076,12.01639 0.74915,0.84576 2.10164,2.83625 3.00554,4.42333 2.61584,4.59295 16.87655,23.25377 19.38135,25.36141 1.78063,1.4983 2.50978,1.72529 3.33695,1.03879 0.58214,-0.48314 1.05845,-1.34432 1.05845,-1.91373 z m -71.0027,-19.63935 c 0.47296,-0.56987 1.49686,-2.88599 2.27533,-5.14693 1.79313,-5.20785 7.22275,-16.04854 10.23815,-20.44134 3.10498,-4.52332 3.45165,-8.79536 1.3387,-16.49711 -2.89222,-10.54223 -10.55425,-24.74181 -13.35057,-24.74181 -0.71666,0 -1.97677,2.60485 -3.59648,7.43447 l -2.4933,7.43446 -0.0207,24.4003 c -0.0114,13.42016 0.24322,25.3439 0.56574,26.4972 0.65042,2.32576 3.49642,2.92439 5.04309,1.06076 z m 105.84249,-9.82962 c 0.33929,-0.52422 0.63594,-12.96266 0.65923,-27.64096 0.0338,-21.30323 0.31556,-28.61089 1.39647,-36.21919 1.555,-10.94538 4.91278,-27.70285 8.09776,-40.41299 2.7582,-11.00704 3.80751,-21.1707 3.8067,-36.87186 -10e-4,-19.39394 -1.01242,-27.55819 -4.68947,-37.85405 -3.47766,-9.73754 -8.44506,-20.08041 -15.26152,-31.77677 -7.47687,-12.82956 -9.95364,-21.9473 -12.39181,-45.61792 l -1.09958,-10.67513 -2.70322,-2.35169 c -4.49323,-3.90892 -11.89185,-5.22636 -11.89185,-2.11752 0,0.63077 0.53287,1.67971 1.18414,2.33099 1.5139,1.51389 1.21823,6.71327 -0.38175,6.71327 -1.77419,0 -5.37744,-7.70437 -5.37744,-11.49788 0,-3.8778 1.25079,-4.89607 6.01407,-4.89607 6.19066,0 12.1381,3.97445 37.13714,24.81738 20.88763,17.41502 25.90654,20.68851 30.4211,19.84157 3.92315,-0.73599 5.51607,-2.59895 13.73614,-16.06485 4.09607,-6.71008 10.4621,-16.36342 14.14673,-21.45188 8.02881,-11.08774 10.03894,-14.82167 9.72467,-18.06409 -0.2016,-2.08001 -0.55778,-2.44843 -2.52228,-2.60893 -2.84104,-0.23211 -4.292,0.86354 -6.3096,4.76453 -3.62028,6.99975 -32.24943,39.51308 -34.42756,39.09842 -0.66047,-0.12574 -1.31844,-1.05776 -1.46216,-2.07117 -0.45797,-3.22923 -2.35137,-5.23775 -17.98044,-19.07374 -8.41976,-7.45378 -20.27066,-18.22707 -26.33531,-23.94065 -6.06467,-5.71358 -12.12128,-10.90777 -13.45915,-11.54262 -1.39947,-0.6641 -4.5445,-1.1543 -7.40569,-1.1543 -4.24593,0 -5.31846,0.29052 -7.33419,1.98664 -8.16054,6.86665 -10.65486,23.54284 -5.72015,38.24309 1.07771,3.21042 5.17411,11.85651 9.10314,19.21352 11.94618,22.36898 19.32796,43.77374 23.152,67.13329 3.33316,20.361 3.45956,23.35018 3.27277,77.39469 -0.17167,49.66645 -0.11189,52.23607 1.41906,61.00074 2.61969,14.99772 3.77883,20.02219 6.21917,26.95789 1.27577,3.62589 2.71281,8.1366 3.1934,10.02381 0.96826,3.80211 1.768,5.33757 2.78009,5.33757 0.36988,0 0.95011,-0.42891 1.28939,-0.95314 z m -141.84023,-2.3616 c 1.18548,-0.98433 6.35836,-4.94181 11.49529,-8.79438 5.13695,-3.85256 9.82971,-7.76522 10.42837,-8.69479 1.29048,-2.00377 3.48828,-10.2242 3.48828,-13.04719 0,-3.77483 -2.58575,-2.10186 -12.52177,8.10153 -13.3067,13.66476 -17.9786,19.40385 -17.9786,22.08538 0,2.72434 2.05807,2.86568 5.08843,0.34945 z m 74.42141,-1.57336 c -0.501,-8.18307 -15.00591,-30.63968 -18.84009,-29.16836 -1.64836,0.63254 -1.51792,4.46125 0.22804,6.69392 0.78213,1.00016 2.37118,3.70569 3.5312,6.01228 2.58079,5.1316 8.99706,14.87758 11.67944,17.74046 2.52154,2.69121 3.61918,2.2787 3.40141,-1.2783 z m -97.19081,-9.20939 c 0.82084,-1.04353 1.73082,-3.48697 2.02218,-5.42986 0.64508,-4.30171 6.11084,-21.63164 8.15039,-25.84195 0.81263,-1.67752 2.34581,-5.62254 3.40707,-8.7667 2.59115,-7.67674 10.35407,-23.26456 17.84879,-35.8401 3.3742,-5.66163 6.34359,-11.15169 6.59863,-12.20014 0.86501,-3.55587 7.29367,-15.61034 10.65545,-19.98015 1.84005,-2.39179 6.54812,-7.98099 10.4624,-12.42045 6.7176,-7.61893 14.12362,-19.13916 17.65087,-27.45638 0.71143,-1.67752 2.02727,-4.52679 2.92411,-6.33171 1.35912,-2.7353 1.62464,-4.59552 1.59478,-11.173 -0.0371,-8.18043 -0.73467,-10.32688 -3.35591,-10.32688 -0.71431,0 -2.13059,0.89727 -3.14731,1.99394 -2.52107,2.71933 -13.50975,11.24824 -16.38557,12.71771 -4.00646,2.0472 -15.73306,15.0846 -21.77917,24.21365 -17.04033,25.72928 -26.17312,43.66668 -37.64299,73.93327 -0.55775,1.47179 -1.93961,6.96185 -3.07079,12.20015 -1.77721,8.22988 -2.11095,11.86689 -2.45583,26.76332 -0.21951,9.48154 -0.15725,19.17493 0.13835,21.54089 0.51195,4.09749 0.64084,4.30173 2.71479,4.30173 1.41153,0 2.70222,-0.66731 3.66976,-1.89734 z m -18.60096,-8.20591 c 0.19117,-0.9436 0.51939,-4.65093 0.7294,-8.23851 0.23207,-3.96446 0.99866,-8.08778 1.95448,-10.51273 0.86497,-2.19443 1.57266,-4.94193 1.57266,-6.10555 0,-4.33118 9.32469,-35.37841 13.79663,-45.93688 1.31566,-3.10633 3.48678,-8.22135 4.82471,-11.3667 3.26275,-7.6704 9.62603,-20.46041 11.5779,-23.27121 0.86807,-1.25007 3.019,-4.84632 4.77984,-7.99167 1.76083,-3.14535 6.27728,-9.94931 10.03653,-15.1199 3.75927,-5.17059 6.83502,-10.06018 6.83502,-10.86575 0,-2.36445 -3.0236,-1.78639 -8.44001,1.61356 -2.69714,1.69304 -6.38259,3.7769 -8.18988,4.63078 -1.80729,0.8539 -3.46198,2.01119 -3.67709,2.57176 -0.21512,0.56057 -1.16409,1.21323 -2.10884,1.45034 -3.30788,0.83023 -20.55323,12.90976 -26.38506,18.48145 -8.06137,7.70179 -9.93545,11.51676 -14.05803,28.61726 -4.31767,17.90969 -5.00647,23.18478 -4.99513,38.25464 0.007,9.58918 0.49864,15.66627 2.20728,27.29535 1.2089,8.22786 2.58931,15.69092 3.06758,16.58458 1.2729,2.37842 5.98517,2.31231 6.47201,-0.0908 z m 138.82881,-6.65477 c 0.25335,-0.40993 0.9582,-10.63945 1.56634,-22.73227 0.60813,-12.09283 1.46269,-23.68117 1.89901,-25.75188 1.54047,-7.31072 1.72915,-10.19704 0.74418,-11.38386 -1.03149,-1.24287 -4.23456,-1.56349 -4.89785,-0.49027 -0.47706,0.77191 -5.80241,1.8295 -17.97796,3.57031 -13.32433,1.90508 -13.76442,2.50301 -7.18093,9.75654 8.65683,9.53789 17.288,24.76061 18.59608,32.79775 0.35545,2.18399 1.53428,5.641 2.61962,7.68224 1.08534,2.04125 1.97335,4.28932 1.97335,4.99572 0,2.10864 1.70112,3.10424 2.65816,1.55572 z M 449.51151,465.87835 c 0.52885,-0.63722 1.24902,-4.27408 1.60039,-8.08192 0.84277,-9.13335 8.99049,-33.86339 15.2752,-46.36343 2.4412,-4.85546 4.44391,-9.26325 4.45046,-9.79509 0.0166,-1.3492 6.78968,-14.70814 11.50238,-22.6869 6.70047,-11.34413 19.31116,-27.25569 32.97668,-41.60839 26.24162,-27.56119 33.45463,-35.52032 38.29064,-42.25153 6.76305,-9.41345 8.32362,-12.84592 11.40766,-25.09098 1.71,-6.78949 3.31664,-11.44642 4.47114,-12.9598 0.99113,-1.29922 4.95308,-4.21159 8.80435,-6.47194 7.71054,-4.52539 11.51051,-7.67488 11.51051,-9.54011 0,-1.94106 -2.85395,-4.26913 -5.23349,-4.26913 -1.20089,0 -4.00315,0.3451 -6.22723,0.76689 -3.3866,0.64226 -4.36389,0.55863 -6.01352,-0.51459 -8.23361,-5.35662 -13.30912,-21.99408 -13.37725,-43.85042 l -0.0301,-9.66646 3.05004,-2.64683 c 2.4506,-2.12664 3.17346,-2.43088 3.67803,-1.548 0.3976,0.69571 0.0214,2.12688 -1.02537,3.90106 -2.49159,4.22296 -2.73765,9.46224 -0.79842,17.00136 0.91078,3.54083 1.98346,9.48786 2.38373,13.21563 1.16773,10.87491 6.5693,20.31049 11.61063,20.28166 2.18354,-0.0125 9.67977,-3.8209 13.54234,-6.8801 3.78141,-2.99494 3.84306,-4.45147 0.69772,-16.48327 -2.73413,-10.45879 -4.94543,-14.17759 -14.23495,-23.9393 -3.47728,-3.65403 -6.32234,-7.02781 -6.32234,-7.49727 0,-1.60613 3.54913,-0.85487 7.11278,1.50559 5.50451,3.64604 10.82822,10.24692 15.01437,18.61634 5.24441,10.4852 5.9125,15.66997 4.69078,36.40296 -0.50044,8.49265 -1.23235,16.81369 -1.62646,18.49121 -1.15157,4.90161 -2.54528,32.75869 -2.11703,42.31462 0.34993,7.80836 0.748,9.78007 3.61861,17.92361 4.07235,11.5527 7.62295,19.33041 10.90364,23.88476 3.10454,4.30981 12.41631,20.1112 15.5816,26.44085 2.4993,4.99785 4.84881,11.59066 6.24998,17.53772 1.06777,4.53198 4.26771,10.29387 5.71684,10.29387 0.56652,0 1.27082,-0.60047 1.56512,-1.33439 1.03518,-2.58154 1.35966,-33.26047 0.46441,-43.90935 -1.84922,-21.9963 -4.59104,-30.80836 -17.66313,-56.76852 -10.36117,-20.57647 -12.61435,-26.84405 -13.39704,-37.26596 -0.91501,-12.18393 2.08333,-20.10419 11.02789,-29.13077 6.83088,-6.89351 8.50903,-9.0994 8.51579,-11.19382 0.009,-2.7815 -7.62752,-14.04877 -13.60571,-20.07455 -8.09969,-8.16418 -12.1488,-16.11276 -8.20806,-16.11276 1.29288,0 17.816,18.45299 21.50707,24.01904 2.66429,4.01771 3.83258,7.87128 4.54788,15.001 l 0.43398,4.32588 4.86141,2.52052 c 2.67377,1.38629 5.14006,2.23924 5.48065,1.89545 1.05737,-1.06731 0.50799,-13.58554 -0.81446,-18.55837 -1.94903,-7.32894 -6.95757,-18.98627 -10.48074,-24.39385 -4.28545,-6.57754 -10.44413,-11.92926 -17.82343,-15.48802 -12.72026,-6.13451 -24.86474,-6.01823 -38.1363,0.36514 -6.0938,2.931 -15.34391,9.76521 -15.99537,11.81778 -0.23877,0.75229 -1.45309,2.43405 -2.69847,3.73723 -1.24538,1.30317 -2.26433,2.9009 -2.26433,3.55049 0,0.64959 -0.76905,2.62571 -1.70898,4.39137 -1.57173,2.95243 -1.70227,4.1596 -1.62538,15.02918 0.0644,9.10983 0.38853,12.69279 1.41382,15.63144 1.93243,5.53862 2.61479,29.32724 0.91561,31.92051 -0.64789,0.98881 -1.73237,3.70482 -2.40993,6.03559 -0.67757,2.33076 -2.53047,6.23896 -4.11755,8.68488 -3.64962,5.62461 -17.69738,19.0721 -26.08506,24.97045 -24.35001,17.12328 -45.82771,37.26511 -59.88731,56.16242 -17.71588,23.81166 -24.91623,50.64149 -22.55174,84.03198 0.51422,7.26173 1.48852,14.57656 2.35882,17.70946 0.8155,2.93566 1.72527,6.99174 2.02171,9.0135 0.54745,3.73363 3.40671,8.14296 5.28036,8.14296 0.54044,0 1.41531,-0.52136 1.94415,-1.15858 z m 110.75733,-46.63592 c 5.08939,-3.22506 32.25151,-16.12931 37.56126,-17.84472 2.64284,-0.85381 4.99483,-2.04665 5.22664,-2.65075 0.23182,-0.60411 1.12534,-1.09837 1.98559,-1.09837 0.86026,0 3.66689,-0.85444 6.23696,-1.89876 2.57008,-1.04432 7.27135,-2.43548 10.44726,-3.09148 3.17592,-0.65601 5.86908,-1.28743 5.98481,-1.40315 0.11573,-0.11572 -0.12748,-2.87539 -0.54046,-6.1326 -1.01389,-7.99682 -5.67301,-18.22918 -15.9962,-35.13084 -7.02382,-11.49977 -8.41112,-14.05649 -8.41112,-15.50128 0,-2.21055 -2.0339,-3.94271 -4.62952,-3.94271 -1.68265,0 -2.23306,0.35578 -2.23306,1.44344 0,0.79389 0.46495,1.62186 1.03323,1.83993 0.56827,0.21807 1.23986,1.66985 1.49242,3.22619 0.25256,1.55633 1.0279,3.45811 1.72299,4.22617 0.69508,0.76805 1.71315,3.38475 2.26239,5.81487 0.54923,2.43012 1.52422,5.79092 2.16663,7.46844 0.77088,2.01299 1.179,5.7723 1.2003,11.05639 0.0412,10.21121 -0.78401,11.94998 -8.35294,17.60069 -3.14535,2.34821 -13.0961,9.77662 -22.11277,16.50758 -19.19401,14.32834 -23.63779,18.10604 -23.63779,20.09469 0,2.24189 4.63072,1.92734 8.59338,-0.58373 z m 132.38804,-9.77495 c 2.21093,-1.88721 4.34347,-3.43129 4.73899,-3.43129 0.39551,0 1.05788,-0.89103 1.47193,-1.98006 0.41405,-1.08903 1.43495,-2.15844 2.26866,-2.37646 1.07065,-0.27998 1.51584,-1.04212 1.51584,-2.595 0,-1.20922 -0.3716,-2.19859 -0.82576,-2.19859 -0.45417,0 -2.59873,1.68363 -4.76569,3.74142 -2.16696,2.05777 -5.56978,5.27235 -7.56184,7.1435 -1.99205,1.87115 -3.62192,3.79037 -3.62192,4.26493 0,1.82919 2.9268,0.72041 6.77979,-2.56845 z M 487.05283,395.5779 c 3.25021,-2.9756 9.25497,-7.80131 13.34391,-10.72381 7.35845,-5.25934 19.26413,-12.36831 20.71367,-12.36831 0.41291,0 2.24661,-1.00955 4.07489,-2.24345 1.82829,-1.23389 7.42134,-4.24687 12.429,-6.69551 13.0876,-6.39955 28.95997,-16.35684 34.13487,-21.41401 7.71638,-7.5408 8.19555,-10.01977 3.45372,-17.86776 l -3.16039,-5.23062 0.13404,-7.77787 c 0.0753,-4.36671 -0.42997,-11.22392 -1.15194,-15.6353 -1.20538,-7.36502 -1.42621,-7.92995 -3.52379,-9.01466 -2.86316,-1.48059 -4.11631,-0.96835 -4.75599,1.94407 -1.29734,5.90677 -9.92287,16.7842 -30.57597,38.55855 -30.31912,31.96514 -38.90236,42.73999 -53.18101,66.76002 -5.68731,9.56739 -5.98737,14.73046 -0.5613,9.65841 1.49425,-1.39677 5.37608,-4.97415 8.62629,-7.94975 z m 201.89526,7.64648 c 4.75583,-3.24604 10.59464,-8.81722 16.92227,-16.14658 8.89775,-10.30637 17.92784,-22.43438 19.97649,-26.82977 0.88926,-1.90789 2.38216,-4.44185 3.31756,-5.63102 0.9354,-1.18917 1.70073,-2.68619 1.70073,-3.3267 0,-0.64051 0.80721,-2.56723 1.7938,-4.2816 0.98658,-1.71436 2.2005,-4.77875 2.69759,-6.80973 0.49708,-2.03099 1.39641,-4.44456 1.99852,-5.36349 0.60211,-0.91893 1.41549,-3.88945 1.80753,-6.60116 0.39203,-2.71172 1.09604,-5.9191 1.56447,-7.12751 2.0779,-5.36044 2.51695,-10.94233 2.98473,-37.94644 0.44766,-25.84217 0.63039,-28.85288 1.83166,-30.17915 2.70541,-2.98694 0.78498,-9.46374 -2.0969,-7.07199 -0.62907,0.52208 -1.14376,2.11895 -1.14376,3.54859 0,1.43606 -0.42656,2.71269 -0.95314,2.85262 -5.17376,1.37475 -5.41485,1.60424 -9.91287,9.43606 -5.2783,9.19042 -6.04128,13.04039 -4.0921,20.64878 1.56356,6.10315 0.75103,10.23512 -3.20893,16.31845 -2.19315,3.36912 -5.50445,5.57487 -9.47392,6.31081 -1.6549,0.30682 -2.85941,0.97021 -2.85941,1.57484 0,0.57459 2.92039,4.22503 6.48975,8.11212 10.21363,11.12276 13.92157,20.21839 10.74539,26.35863 -1.03163,1.99436 -6.70503,7.67536 -13.11097,13.12853 -4.3029,3.66292 -5.54165,5.83697 -7.24749,12.71966 -1.71738,6.92921 -3.3323,9.46006 -6.57209,10.29958 -1.71746,0.44503 -3.21881,1.91315 -5.66166,5.53636 -1.96521,2.91478 -4.33128,5.4204 -5.78708,6.1284 -3.21828,1.56516 -6.44579,7.12648 -6.90412,11.89653 -0.33943,3.53241 -0.26055,3.73197 1.47502,3.73197 1.00849,0 2.68202,-0.57906 3.71893,-1.28679 z m -116.0451,-7.29144 c 5.86601,-4.00503 20.75609,-15.90345 24.80884,-19.82433 l 3.74278,-3.62102 -0.45115,-8.19788 c -0.51225,-9.30817 -2.11126,-17.43713 -4.22925,-21.5006 -0.79428,-1.52384 -1.67812,-3.83598 -1.96412,-5.13808 -0.67649,-3.08007 -5.79559,-8.62828 -7.96095,-8.62828 -2.86949,0 -3.47592,3.22505 -2.00732,10.67513 0.70269,3.56473 1.46707,9.78093 1.69861,13.81377 0.35153,6.1229 0.15452,8.19831 -1.19428,12.58141 -1.411,4.58519 -8.0423,16.85407 -12.09096,22.37007 -1.98009,2.69774 -5.53878,8.70536 -5.55403,9.37608 -0.0258,1.13601 1.64012,0.5255 5.20183,-1.90627 z m 137.90936,-3.43129 c 0.2679,-0.73392 1.30822,-2.33011 2.31182,-3.54711 1.37154,-1.66318 1.58624,-2.36012 0.86445,-2.80621 -0.52815,-0.32641 -1.55538,-0.27499 -2.28273,0.11427 -1.74082,0.93166 -4.47854,4.81752 -4.47854,6.35676 0,1.66459 2.97,1.56708 3.585,-0.11771 z m -19.22664,-9.94546 c 0.84437,-1.37173 2.22832,-3.59825 3.07544,-4.94783 0.84712,-1.34959 2.70417,-3.03824 4.12678,-3.75256 3.24123,-1.62749 3.64623,-2.29754 4.26269,-7.05238 0.60388,-4.65791 3.25574,-10.72524 5.92456,-13.5552 1.07944,-1.1446 4.8854,-3.96661 8.4577,-6.27113 7.05921,-4.55396 8.0947,-5.81203 8.0947,-9.83464 0,-7.26903 -11.052,-21.98241 -19.82525,-26.3931 -4.48578,-2.2552 -12.32569,-4.57224 -19.27926,-5.69788 -5.38276,-0.87135 -8.69494,-2.0757 -17.79019,-6.46868 -6.14681,-2.96889 -11.63751,-5.39797 -12.20156,-5.39797 -0.56405,0 -1.21901,0.77204 -1.45547,1.71564 -0.78102,3.11672 0.11901,5.07785 17.40969,37.93484 7.56773,14.38074 10.1644,23.253 12.6708,43.29321 0.43415,3.47133 1.16271,7.00911 1.61902,7.86172 1.13436,2.11957 3.07106,1.55397 4.91035,-1.43404 z m 25.87315,2.42941 c 1.52541,-0.58535 1.61598,-4.11222 0.1056,-4.11222 -1.28882,0 -3.5919,3.00575 -3.01647,3.93682 0.46779,0.7569 1.2696,0.80522 2.91087,0.1754 z m 5.06249,-6.48161 c 0.63482,-1.18617 0.63635,-1.83051 0.006,-2.46101 -1.17156,-1.17157 -3.40562,0.28605 -3.7246,2.43012 -0.329,2.21136 2.53906,2.23518 3.71876,0.0309 z m 4.05919,-5.43202 c 0.64127,-1.02305 0.51963,-1.62356 -0.54061,-2.66878 -1.30883,-1.2903 -1.41558,-1.2846 -2.46523,0.13143 -1.69548,2.2873 -1.41797,4.39249 0.54061,4.10109 0.90077,-0.13401 2.01013,-0.8377 2.46523,-1.56374 z m 3.52209,-6.68626 c 0,-1.77919 -0.33889,-2.28753 -1.52502,-2.28753 -1.18613,0 -1.52502,0.50834 -1.52502,2.28753 0,1.77918 0.33889,2.28752 1.52502,2.28752 1.18613,0 1.52502,-0.50834 1.52502,-2.28752 z m 3.10017,-5.36439 c 1.77221,-0.94847 1.92114,-3.22864 0.29881,-4.57505 -1.35202,-1.12208 -2.42934,-0.33867 -2.65835,1.93309 -0.36095,3.58066 -0.0484,3.93064 2.35954,2.64196 z m 4.0813,-8.06111 c 1.56896,-0.60206 1.57179,-4.38453 0.005,-5.68546 -1.48095,-1.22908 -2.5809,0.10906 -2.59899,3.1618 -0.0162,2.72775 0.57204,3.29984 2.59474,2.52366 z M 454.6839,340.76914 c 0.28938,-3.93994 -1.64541,-6.10225 -3.36092,-3.75614 -1.26228,1.72626 -1.31508,2.68051 -0.29652,5.35951 1.20396,3.16666 3.37707,2.21399 3.65744,-1.60337 z m 287.29404,0.8176 c 0.84666,-2.02633 0.91807,-3.06792 0.29072,-4.24013 -1.69052,-3.15879 -4.26391,-0.0944 -3.47083,4.13307 0.65991,3.5176 1.7399,3.55396 3.18011,0.10706 z m -278.19989,-5.28173 c 1.90496,-3.70451 13.34751,-15.90059 24.18603,-25.77877 8.41114,-7.66587 12.79847,-11.04808 32.64926,-25.16937 3.85945,-2.74551 6.87022,-5.464 7.12745,-6.43554 0.24495,-0.92514 -0.31861,-5.19365 -1.25235,-9.48558 -2.19219,-10.07642 -1.78588,-14.85665 2.35617,-27.72031 4.3121,-13.39173 4.28378,-22.54629 -0.10495,-33.93166 -2.15401,-5.58801 -2.32425,-16.50792 -0.37445,-24.01904 1.08208,-4.16845 1.29318,-7.00778 0.9638,-12.96285 -0.53882,-9.74147 -1.28506,-11.81871 -4.24588,-11.81871 -3.40452,0 -13.23178,7.10421 -26.65828,19.27148 -23.24103,21.06135 -36.19266,42.39741 -44.81399,73.82503 -2.73702,9.97737 -2.81308,10.61819 -3.15925,26.61745 -0.37814,17.47648 0.62805,35.06988 2.39849,41.93801 0.59458,2.30659 1.29916,5.7791 1.56574,7.71669 0.60906,4.4269 4.38208,10.58353 6.48601,10.58353 0.96727,0 2.01748,-0.96045 2.8762,-2.63036 z m 282.18554,-8.2032 c -0.26194,-4.46856 -1.70559,-5.63005 -2.96029,-2.3817 -0.61392,1.58942 -0.59169,3.25525 0.0843,6.31536 l 0.91818,4.15648 1.09366,-2.08732 c 0.65639,-1.25277 1.00189,-3.65281 0.86415,-6.00282 z m -295.4017,0.77509 c 0.86895,-2.45796 0.0126,-5.95422 -1.45845,-5.95422 -0.86248,0 -1.12924,1.00572 -1.12924,4.25734 0,4.56411 1.27783,5.40204 2.58769,1.69688 z m 142.37536,-3.66669 c 1.33658,0 2.43475,-0.4838 2.70668,-1.19243 0.25166,-0.65584 -0.67209,-4.00134 -2.05279,-7.43447 l -2.51037,-6.24203 -0.55709,-29.48602 c -0.30639,-16.21731 -0.78617,-29.8567 -1.06617,-30.30974 -0.73373,-1.1872 -2.36276,-1.01306 -3.51539,0.37576 -0.54752,0.65973 -2.27839,1.85398 -3.84638,2.65392 -1.568,0.79992 -4.98383,3.42913 -7.59075,5.84268 l -4.73985,4.38827 0.41341,11.04433 0.41341,11.04433 2.37268,2.11999 c 1.30496,1.16599 3.05351,2.11998 3.88566,2.11998 1.30218,0 1.51299,-0.51819 1.51299,-3.71919 0,-4.0997 1.762,-6.7283 3.09647,-4.61938 0.92336,1.45922 0.89679,2.03802 -0.37178,8.09809 -1.78913,8.54677 -3.71847,25.84459 -3.18716,28.575 0.80251,4.12414 2.74229,5.98384 6.97786,6.68979 2.07816,0.34637 4.23545,0.49956 4.79398,0.34043 0.55853,-0.15912 2.02759,-0.28931 3.26459,-0.28931 z m 156.37979,-22.58011 -0.68122,-3.72646 -0.95094,2.28752 c -1.03992,2.50157 -0.76463,12.34604 0.39627,14.17154 1.06391,1.67296 2.03688,-8.35098 1.23589,-12.7326 z m -303.2012,6.8292 c 0.62214,-4.97943 -1.01879,-15.63134 -2.10814,-13.68478 -0.40498,0.72366 -0.91454,4.46878 -1.13237,8.32251 -0.62022,10.97273 1.99818,15.30555 3.24051,5.36227 z m 264.29069,-5.62247 c 3.65124,-1.01413 10.4017,-7.12525 12.16961,-11.01701 0.76611,-1.68646 1.40046,-4.19851 1.40967,-5.58232 0.0204,-3.06215 -1.90366,-7.01534 -3.41442,-7.01534 -0.60746,0 -2.53931,2.61437 -4.29302,5.80972 -1.7537,3.19534 -4.53133,7.36117 -6.17251,9.25739 -4.20225,4.85533 -5.40056,6.85968 -4.89255,8.18354 0.51846,1.35107 1.41357,1.41382 5.19322,0.36402 z m -19.48729,-3.1658 c 0.64595,-1.04518 -4.05705,-5.39477 -8.09218,-7.48411 -1.46783,-0.76002 -8.15885,-6.08748 -14.86893,-11.83878 -13.14441,-11.26626 -15.13199,-12.60557 -16.57119,-11.16637 -1.19059,1.19059 0.18498,7.87344 2.79339,13.57096 1.85084,4.04277 2.11875,4.26691 8.98651,7.51837 19.71775,9.33514 26.39473,11.59668 27.7524,9.39993 z M 446.13761,272.97832 c 0.55735,-6.19238 -0.72591,-12.61144 -2.22209,-11.11525 -1.07088,1.07088 -1.20678,11.66106 -0.22092,17.21532 0.65759,3.70485 0.69487,3.74793 1.31966,1.52502 0.35361,-1.25814 0.85912,-4.68943 1.12335,-7.62509 z m 303.45142,-3.12544 c 0.51557,-4.12646 0.0477,-11.52634 -0.78125,-12.35524 -1.40902,-1.40902 -2.90081,7.43386 -2.19351,13.00253 0.64953,5.11386 2.29982,4.75476 2.97476,-0.64729 z m -211.7113,0.60298 c 3.87007,-4.09928 9.04144,-14.72288 10.46414,-21.49658 1.38867,-6.61167 1.09753,-16.08979 -0.90173,-29.35661 -1.54458,-10.24962 -1.22245,-25.8173 0.63113,-30.50037 0.66396,-1.67752 1.96633,-5.10881 2.89413,-7.62509 l 1.68693,-4.57506 -3.95021,-9.91087 c -2.17263,-5.45098 -4.60576,-12.31357 -5.40696,-15.25019 -1.78412,-6.53927 -5.39991,-16.68496 -7.12053,-19.97975 -0.70091,-1.34216 -1.27437,-3.09979 -1.27437,-3.90584 0,-0.80606 -0.85783,-4.09342 -1.90628,-7.30526 -1.04845,-3.21184 -1.90627,-7.17712 -1.90627,-8.81173 0,-3.64467 -1.84295,-5.92416 -3.6064,-4.46062 -1.92276,1.59574 -0.8793,22.41597 1.90568,38.02425 1.23902,6.94404 2.63781,13.345 3.10843,14.22435 1.53198,2.86255 1.84617,11.81738 0.7969,22.71323 -1.48617,15.43264 -1.30723,18.62881 1.55821,27.83159 2.71264,8.71205 4.1159,22.63842 2.47975,24.60984 -0.45058,0.54293 -2.11125,4.57808 -3.69037,8.96702 -2.72946,7.58615 -2.87267,8.45018 -2.90229,17.51126 -0.0172,5.24225 0.21542,10.13184 0.51679,10.86575 0.903,2.19904 3.68884,1.53897 6.62332,-1.56932 z m 164.52941,-1.09946 c 4.95064,-4.67564 8.63276,-9.74641 8.63276,-11.88843 0,-0.83072 -0.73764,-3.43796 -1.63918,-5.79385 -1.45893,-3.81242 -1.53375,-4.63742 -0.6804,-7.50232 0.52734,-1.77038 2.01841,-4.76295 3.31349,-6.65016 8.60627,-12.54114 8.91871,-13.1 8.91871,-15.953 0,-3.13673 -1.86899,-9.09195 -4.61376,-14.70103 l -1.75428,-3.58496 1.26476,-7.70493 c 0.69561,-4.23771 2.15848,-9.83019 3.2508,-12.42773 7.09636,-16.87504 10.84105,-30.60632 11.50182,-42.17561 0.52574,-9.20498 -0.30439,-13.25408 -2.7173,-13.25408 -1.78879,0 -7.67375,6.27216 -11.80471,12.58141 -10.32601,15.77095 -31.02344,41.23915 -48.44064,59.60622 -16.29862,17.1875 -18.95407,20.39549 -19.57504,23.64821 -0.85214,4.46361 0.85925,7.38041 8.28191,14.1153 3.83797,3.48234 14.14748,12.93676 22.91003,21.00983 9.3576,8.62129 16.54687,14.67831 17.42217,14.67831 0.81964,0 3.39763,-1.80143 5.72886,-4.00318 z m 16.31178,-16.79945 c 2.27238,-1.76239 12.31057,-13.84329 12.99216,-15.63599 0.37582,-0.9885 0.61929,-4.79833 0.54103,-8.46627 -0.11065,-5.18666 0.1431,-7.07642 1.14165,-8.50204 1.89602,-2.70695 1.63862,-5.661 -0.62235,-7.14244 -1.24329,-0.81464 -1.90627,-1.95511 -1.90627,-3.27922 0,-1.11659 -0.73398,-2.81147 -1.63108,-3.76638 -0.8971,-0.95492 -2.02088,-2.51808 -2.4973,-3.47369 -1.04293,-2.09188 -3.32528,-2.70372 -3.95586,-1.06045 -0.24999,0.65147 0.24797,2.64982 1.10659,4.44078 0.85861,1.79096 1.92614,4.2331 2.37229,5.42698 0.44615,1.19388 1.4933,2.34906 2.32701,2.56709 2.01782,0.52767 1.91147,1.91887 -0.35234,4.60927 -1.02751,1.22112 -3.06081,4.83723 -4.51844,8.03579 -1.45763,3.19857 -3.7584,7.42624 -5.11283,9.39482 -2.83572,4.12157 -5.27575,10.10223 -5.27575,12.93113 0,4.20025 2.59644,6.08836 5.39149,3.92062 z m -269.2197,-4.36018 c 0,-1.67752 -0.34313,-3.05004 -0.76251,-3.05004 -0.41938,0 -0.76251,1.37252 -0.76251,3.05004 0,1.67752 0.34313,3.05004 0.76251,3.05004 0.41938,0 0.76251,-1.37252 0.76251,-3.05004 z m 297.19419,-12.64192 c 0.12805,-2.93688 -0.1979,-5.18071 -0.93273,-6.42081 -0.62127,-1.04845 -1.66727,-3.0435 -2.32445,-4.43344 -0.90251,-1.90881 -1.60714,-2.46853 -2.87981,-2.28753 -2.56925,0.36541 -2.62118,4.40331 -0.12947,10.06829 4.2073,9.56546 5.94623,10.41835 6.26646,3.07349 z m -151.97083,-1.89418 c 0,-3.32991 -1.49046,-5.02971 -3.18044,-3.62714 -1.28087,1.06304 -1.30181,8.00374 -0.0255,8.47691 1.68842,0.62597 3.20601,-1.66971 3.20601,-4.84977 z m 56.57863,-23.39874 c 6.3612,-5.68041 34.57588,-37.96637 34.57588,-39.56506 0,-1.81879 -8.53909,-7.77646 -18.2916,-12.76193 -13.63649,-6.97096 -26.93546,-12.67692 -29.54628,-12.67692 -1.23408,0 -4.95792,-0.69565 -8.2752,-1.54588 -9.89269,-2.53553 -19.84398,-3.25021 -39.20058,-2.81527 -13.3345,0.29962 -18.99192,0.71935 -22.11277,1.64058 -2.30659,0.68087 -6.5957,1.60166 -9.53136,2.04618 -8.53006,1.29166 -8.6844,1.34931 -9.89875,3.6976 -1.46721,2.83729 -1.47193,4.91682 -0.0139,6.1269 0.62907,0.52208 1.14376,1.58669 1.14376,2.36579 0,0.77911 0.8393,3.56791 1.86511,6.19734 1.0258,2.62943 2.06173,5.72439 2.30205,6.87768 0.68421,3.28347 3.1421,2.64786 10.37562,-2.68313 8.93507,-6.585 14.10106,-8.76583 22.90336,-9.6687 23.84792,-2.44614 40.25962,5.9933 50.20859,25.81893 4.5329,9.03287 8.42144,20.08974 8.42144,23.94597 0,5.54002 1.34179,6.33324 5.0746,2.99992 z M 689.68964,164.092 c 0,-1.39959 -1.59114,-2.82129 -3.15754,-2.82129 -1.61722,0 -2.46358,1.21129 -1.89027,2.7053 0.53684,1.39899 5.04781,1.50264 5.04781,0.11599 z m -129.52869,-24.09748 1.79185,-1.45095 -3.60429,-0.5405 c -4.08526,-0.61262 -5.91054,-0.16289 -5.91054,1.45629 0,2.18764 5.23431,2.55036 7.72298,0.53516 z m 78.82182,-0.83658 c -0.25919,-0.41938 -1.63171,-0.76251 -3.05003,-0.76251 -1.41833,0 -2.79085,0.34313 -3.05004,0.76251 -0.28818,0.4663 0.89667,0.76251 3.05004,0.76251 2.15336,0 3.33822,-0.29621 3.05003,-0.76251 z m -52.65126,-3.77266 c -0.97245,-0.97009 -10.3824,-1.88982 -12.89167,-1.26003 -4.00404,1.00495 -0.91473,1.98266 6.26471,1.98266 4.63166,0 7.08335,-0.26735 6.62696,-0.72263 z m 35.4948,-0.0516 c 1.01668,-0.66741 1.01668,-0.83426 0,-1.50167 -0.62907,-0.41295 -1.48689,-0.74993 -1.90627,-0.74883 -1.90577,0.005 -15.08135,2.22043 -15.46056,2.59964 -0.76346,0.76346 16.19122,0.4226 17.36683,-0.34914 z"
       id="path1535"
       transform="matrix(7.5,0,0,-7.5,0,7260)" />
    <path
       style="fill:#7FFFD3;fill-opacity:1;stroke-width:0.762509"
       d="m 13.877023,721.7891 c -1.593999,-0.33502 -3.28774,-0.99868 -3.763869,-1.47481 -1.241846,-1.24184 -2.003011,-14.4685 -2.0585764,-35.77159 l -0.04823,-18.49085 h 2.9297074 2.929707 l 0.501585,13.8474 c 0.275871,7.61608 0.501584,19.06055 0.501584,25.43218 v 11.58477 l 5.622097,0.47524 c 3.092154,0.26138 6.582872,0.84053 7.757152,1.28699 1.867165,0.70989 1.996036,0.95076 1.02709,1.91971 -1.327833,1.32783 -11.137137,2.08652 -15.398247,1.19096 z"
       id="path1574"
       transform="matrix(7.5,0,0,-7.5,0,7260)" />
    <path
       style="fill:#7FFFD3;fill-opacity:1;stroke-width:0.762509"
       d="M 12.456361,720.89481 C 11.339138,720.46132 10.182886,719.52493 9.8869115,718.81394 9.5909373,718.10295 9.214999,710.48708 9.0514931,701.88979 8.8879872,693.2925 8.6451628,681.71189 8.5118835,676.1551 l -0.242326,-10.10325 h 2.4687275 2.468728 l 0.423301,6.2907 c 0.232816,3.45989 0.597133,14.83073 0.809593,25.26853 0.212459,10.4378 0.511623,19.10315 0.664809,19.25634 0.153185,0.15318 2.927766,0.61441 6.165735,1.02494 10.705937,1.35738 10.555018,3.22915 -0.288677,3.58031 -3.571754,0.11567 -7.408189,-0.14437 -8.525413,-0.57786 z"
       id="path1613"
       transform="matrix(7.5,0,0,-7.5,0,7260)" />
    <path
       style="fill:#7FFFD3;fill-opacity:1;stroke-width:0.762509"
       d="m 52.398905,720.89932 c -5.782967,-2.29207 -12.546364,-8.83041 -15.608276,-15.0889 -2.292469,-4.68576 -2.477712,-5.63448 -2.477712,-12.68949 0,-6.94731 0.203336,-8.03176 2.287528,-12.20015 2.917097,-5.83419 7.909815,-10.82151 13.725167,-13.71033 4.232848,-2.10269 5.202437,-2.27379 12.962658,-2.28752 7.261245,-0.0128 8.872001,0.22372 11.994761,1.76168 14.370948,7.07767 20.915263,24.81593 14.459783,39.19299 -1.780643,3.96569 -11.123667,13.10717 -15.147876,14.82112 -1.827866,0.77851 -5.769465,1.34669 -10.544159,1.51993 -6.381868,0.23157 -8.281634,0.0165 -11.651874,-1.31933 z m 17.465453,-4.17186 c 5.008997,-1.76402 8.965791,-4.81487 12.552042,-9.67815 2.565182,-3.47861 3.399598,-5.426 4.084,-9.53136 1.843543,-11.05844 -1.888426,-18.53859 -12.877391,-25.81074 -3.998554,-2.64612 -11.969529,-3.32458 -17.495477,-1.48916 -4.857076,1.61326 -11.963339,7.93289 -14.394744,12.80131 -4.581981,9.17453 -3.238441,18.93014 3.694516,26.82634 6.154719,7.00984 16.111473,9.81377 24.437054,6.88176 z"
       id="path1652"
       transform="matrix(7.5,0,0,-7.5,0,7260)" />
    <path
       style="fill:#7FFFD3;fill-opacity:1;stroke-width:0.762509"
       d="m 119.97195,722.33892 c -3.61811,-0.9635 -8.62945,-5.2839 -10.7688,-9.28405 -1.61312,-3.01621 -1.70032,-4.15042 -1.93274,-25.13662 l -0.24339,-21.97788 2.12523,0.24637 c 2.87908,0.33376 3.08973,1.62776 3.98402,24.47397 0.84284,21.53187 1.12701,22.57599 6.94733,25.52613 4.10515,2.08078 6.27069,2.12925 10.44555,0.2338 5.78273,-2.62545 7.01164,-7.9193 7.17889,-30.9248 0.12245,-16.84428 0.42134,-18.9688 2.71479,-19.29664 1.54649,-0.22107 1.66744,0.1767 2.20267,7.24383 0.31148,4.11277 0.21415,14.02717 -0.21629,22.03201 -0.63378,11.78608 -1.07709,15.21992 -2.33081,18.05418 -1.7611,3.98124 -5.59152,6.913 -11.26151,8.61942 -4.07347,1.22593 -4.88992,1.24349 -8.84494,0.19028 z"
       id="path1691"
       transform="matrix(7.5,0,0,-7.5,0,7260)" />
    <path
       style="fill:#7FFFD3;fill-opacity:1;stroke-width:0.762509"
       d="m 157.07691,679.01451 c -0.25919,-0.41938 -0.25137,-1.1183 0.0174,-1.55315 0.26875,-0.43485 0.97165,-3.78036 1.562,-7.43446 1.08914,-6.74147 2.14737,-8.5501 5.00268,-8.5501 0.73385,0 1.59479,0.42152 1.9132,0.93672 1.1065,1.79036 0.41419,8.76104 -1.18059,11.88708 -2.21317,4.33817 -6.02764,6.79639 -7.31468,4.71391 z"
       id="path1730"
       transform="matrix(7.5,0,0,-7.5,0,7260)" />
    <path
       style="fill:#7FFFD3;fill-opacity:1;stroke-width:0.762509"
       d="m 188.08712,720.49253 c -4.1084,-2.0473 -6.60503,-5.29705 -5.76043,-7.49806 0.66983,-1.74555 1.79939,-1.49144 6.42969,1.44648 5.47051,3.47102 9.42194,4.07161 13.8631,2.10707 5.78293,-2.55806 8.36904,-9.24673 5.6084,-14.50547 -1.51717,-2.89004 -5.93788,-6.87665 -12.81869,-11.55992 -6.26048,-4.26106 -10.11109,-8.9972 -10.94981,-13.46797 -0.60184,-3.20811 2.4895,-8.84437 6.03746,-11.00774 2.97491,-1.81396 10.26052,-1.99828 13.46597,-0.34068 2.54486,1.316 4.58348,3.93699 4.58348,5.89284 0,1.85851 -1.71026,1.69984 -5.93831,-0.55092 -6.24858,-3.32637 -11.07456,-2.04808 -12.05796,3.19388 -0.36985,1.97149 -0.13974,3.47382 0.79907,5.21711 1.17397,2.17992 3.37304,4.02266 15.36651,12.87657 6.59144,4.86599 9.29332,11.82026 7.16766,18.44858 -3.25805,10.15938 -15.60667,14.82586 -25.79614,9.74823 z"
       id="path1769"
       transform="matrix(7.5,0,0,-7.5,0,7260)" />
    <path
       style="fill:#7FFFD3;fill-opacity:1;stroke-width:0.762509"
       d="m 268.46555,721.77396 c -1.64326,-0.3427 -3.39054,-1.17394 -3.88284,-1.8472 -1.14316,-1.56337 -1.84178,-24.94912 -1.21577,-40.69712 0.57379,-14.43443 0.36461,-14.13539 10.17489,-14.54564 7.27745,-0.30434 11.25538,0.5334 11.25538,2.37035 0,1.722 -3.57185,2.81005 -9.22489,2.81005 -5.30688,0 -5.34706,0.0156 -6.3647,2.47815 -1.56124,3.77794 -1.89852,20.37698 -0.46024,22.65067 0.44801,0.70824 2.64171,1.28757 6.06295,1.60116 9.73703,0.8925 10.01154,4.08609 0.40422,4.70265 -3.16179,0.20291 -6.1015,0.72173 -6.5327,1.15294 -1.41067,1.41067 -0.90422,10.18576 0.7133,12.35893 1.27387,1.71148 2.1655,2.00115 7.29433,2.36974 3.88666,0.27931 6.25199,0.82883 7.06436,1.64121 1.12005,1.12004 1.08427,1.29462 -0.43154,2.10585 -2.1358,1.14305 -11.01289,1.64989 -14.85675,0.84826 z"
       id="path1808"
       transform="matrix(7.5,0,0,-7.5,0,7260)" />
    <path
       style="fill:#7FFFD3;fill-opacity:1;stroke-width:0.762509"
       d="m 299.77041,719.80552 c -0.86446,-2.25275 -0.56348,-52.09047 0.31788,-52.63517 1.20959,-0.74757 5.34223,2.40912 8.34671,6.37557 1.46783,1.9378 6.10008,7.6213 10.29388,12.63 4.1938,5.0087 9.77673,11.88007 12.40651,15.26971 2.62979,3.38964 5.24468,6.26538 5.81086,6.39053 1.71642,0.3794 1.96787,-2.49054 1.97871,-22.58398 l 0.0104,-19.30639 1.67058,0.24366 c 1.17809,0.17183 1.8804,1.03041 2.38233,2.91244 0.76647,2.87398 0.13897,46.4034 -0.71258,49.43161 -0.48183,1.71342 -0.62982,1.6475 -4.28021,-1.90627 -2.07962,-2.02458 -7.59135,-8.3133 -12.24829,-13.97493 -14.61995,-17.77407 -20.46027,-24.4003 -21.5063,-24.4003 -0.80979,0 -1.06385,4.0413 -1.26864,20.18021 -0.21983,17.324 -0.43018,20.35418 -1.4862,21.40939 -1.13144,1.13057 -1.26907,1.12767 -1.71565,-0.0361 z"
       id="path1847"
       transform="matrix(7.5,0,0,-7.5,0,7260)" />
    <path
       style="fill:#7FFFD3;fill-opacity:1;stroke-width:0.762509"
       d="m 378.81448,721.10648 c -7.44247,-2.66323 -14.3915,-8.91542 -17.90952,-16.11359 -1.37241,-2.80807 -1.65319,-4.73844 -1.66369,-11.43764 -0.0156,-9.98347 1.16197,-12.97396 7.73679,-19.64718 7.98548,-8.10499 9.57128,-8.85308 19.57871,-9.23613 9.8828,-0.37829 13.36394,0.43327 15.65404,3.64942 1.88963,2.65373 1.89341,2.82411 0.0841,3.7924 -1.0886,0.5826 -2.33951,0.38618 -4.98053,-0.78207 -5.46957,-2.41945 -13.05441,-2.78735 -17.44301,-0.84606 -4.76895,2.10953 -11.45794,8.55625 -13.84221,13.34085 -2.82122,5.66145 -2.72342,12.9717 0.25697,19.20707 5.8742,12.28962 18.0136,17.28837 30.57576,12.59044 4.60848,-1.72346 4.84977,-1.74075 5.81777,-0.41695 1.33239,1.82216 0.25947,3.81006 -2.95682,5.47843 -3.82176,1.98243 -15.86714,2.22498 -20.9084,0.42101 z"
       id="path1886"
       transform="matrix(7.5,0,0,-7.5,0,7260)" />
    <path
       style="fill:#7FFFD3;fill-opacity:1;stroke-width:0.762509"
       d="m 419.58195,697.50536 c -0.23392,-12.47656 -0.20347,-24.57186 0.0677,-26.87845 0.43005,-3.65835 0.72327,-4.22638 2.29658,-4.44899 0.99198,-0.14035 2.19293,0.13392 2.66878,0.60949 0.55025,0.54991 1.00398,5.85761 1.24645,14.58104 0.30761,11.06692 0.60218,13.85583 1.52502,14.43839 0.62907,0.39712 7.92056,0.72728 16.20332,0.73371 l 15.05956,0.0117 0.0388,-6.2907 c 0.0213,-3.45988 0.32627,-10.02126 0.67761,-14.58083 0.66624,-8.64639 1.10303,-9.59452 4.43051,-9.61716 l 1.71564,-0.0117 v 27.06908 27.06908 h -2.24252 c -1.23339,0 -2.5076,-0.42889 -2.83157,-0.95309 -0.32397,-0.5242 -0.79087,-4.2992 -1.03755,-8.38889 -0.26196,-4.34296 -0.8438,-7.83171 -1.39885,-8.38765 -1.16546,-1.16731 -25.13652,-1.80699 -29.12626,-0.77724 l -2.63248,0.67943 -0.47156,8.72309 c -0.25936,4.7977 -0.51671,8.80888 -0.57188,8.91372 -0.0552,0.10485 -1.24594,0.19063 -2.64614,0.19063 h -2.54583 z"
       id="path1925"
       transform="matrix(7.5,0,0,-7.5,0,7260)" />
    <path
       style="fill:#7FFFD3;fill-opacity:1;stroke-width:0.762509"
       d="m 479.99959,719.55003 c 0,-2.15741 18.38989,-40.49118 21.35178,-44.50782 0.83792,-1.13631 1.5235,-2.57847 1.5235,-3.20478 0,-3.53548 3.73236,-6.86765 6.07248,-5.42138 0.98624,0.60953 25.95291,51.22726 25.95291,52.61724 0,0.5335 -0.47631,1.36529 -1.05845,1.84842 -1.68648,1.39965 -5.45412,-2.33658 -7.28156,-7.22084 -0.85982,-2.29807 -2.40473,-5.83879 -3.43314,-7.86826 -2.24224,-4.42485 -3.04542,-4.6444 -17.03607,-4.65694 -11.50914,-0.0103 -14.06429,0.82798 -15.43762,5.06475 -2.34686,7.24018 -7.60374,15.51461 -9.85666,15.51461 -0.43845,0 -0.79717,-0.97425 -0.79717,-2.165 z m 36.16742,-25.66659 c -0.073,-4.30359 -6.55881,-17.91897 -8.53581,-17.91897 -1.90638,0 -4.50895,2.86827 -5.18907,5.71882 -0.30018,1.25814 -1.32813,3.66005 -2.28432,5.33757 -0.9562,1.67752 -1.97758,4.69078 -2.26973,6.69615 l -0.53119,3.64611 9.43094,-0.21482 9.43095,-0.21482 -0.0518,-3.05004 z"
       id="path1964"
       transform="matrix(7.5,0,0,-7.5,0,7260)" />
    <path
       style="fill:#7FFFD3;fill-opacity:1;stroke-width:0.762509"
       d="m 550.86763,719.34281 c -0.90191,-1.68523 -1.12032,-49.82816 -0.2365,-52.13134 0.84249,-2.19552 2.35204,-1.14256 7.35606,5.13108 20.30211,25.45319 28.62236,35.28977 30.02323,35.4948 1.40604,0.20579 1.61199,-0.29153 2.05252,-4.95631 0.26931,-2.85178 0.49209,-11.72471 0.49507,-19.71762 0.004,-11.33529 0.24334,-14.85794 1.08684,-16.01149 0.59479,-0.81342 1.36683,-1.19185 1.71565,-0.84096 0.73984,0.7442 0.63492,40.19618 -0.12869,48.39346 -0.43035,4.61976 -0.73497,5.5296 -1.78429,5.32944 -1.42714,-0.27223 -13.3282,-14.29961 -26.12577,-30.79358 -4.70772,-6.06748 -8.93198,-10.90844 -9.38725,-10.75769 -0.7455,0.24686 -1.48727,14.7629 -1.86823,36.56047 -0.081,4.63442 -0.34427,5.90945 -1.22022,5.90945 -0.61431,0 -1.5046,-0.72437 -1.97842,-1.60971 z"
       id="path2003"
       transform="matrix(7.5,0,0,-7.5,0,7260)" />
    <path
       style="fill:#7FFFD3;fill-opacity:1;stroke-width:0.762509"
       d="m 619.44217,711.99304 c -0.0531,-4.50834 -0.31049,-15.74582 -0.57188,-24.97218 l -0.47527,-16.77521 -4.44229,-0.47724 c -7.03484,-0.75578 -7.83202,-3.06506 -1.56038,-4.52015 3.97423,-0.92207 19.52345,-0.90634 21.96573,0.0222 2.0798,0.79074 2.58149,2.58294 1.00277,3.58221 -0.52422,0.33181 -2.66878,0.78097 -4.76568,0.99813 l -3.81255,0.39484 -0.48912,4.57506 c -0.26902,2.51628 -0.52636,13.75376 -0.57188,24.97218 l -0.0828,20.39712 h -3.05004 -3.05003 z"
       id="path2042"
       transform="matrix(7.5,0,0,-7.5,0,7260)" />
    <path
       style="fill:#7FFFD3;fill-opacity:1;stroke-width:0.762509"
       d="m 655.56836,721.92602 c -1.52835,-0.1897 -2.80829,-0.92621 -3.34171,-1.92293 -1.98757,-3.71381 -2.0355,-52.12071 -0.0536,-54.10264 1.13298,-1.13297 12.00399,-1.72295 15.40379,-0.83597 1.82012,0.47485 2.74212,1.19588 2.89942,2.26744 0.26398,1.79837 -1.49293,2.50063 -6.33071,2.53046 -1.67752,0.0103 -4.33677,0.23149 -5.90945,0.49143 l -2.85941,0.47263 v 11.71913 c 0,10.76095 0.12659,11.84571 1.54821,13.26733 1.29032,1.29032 2.14994,1.46838 5.16074,1.06899 2.98591,-0.3961 3.9408,-0.20441 5.50501,1.10508 1.60933,1.34728 1.72135,1.69896 0.7487,2.35063 -0.62907,0.42148 -3.23514,0.77158 -5.79127,0.778 -6.50705,0.0163 -8.61696,2.71144 -7.57296,9.67331 0.7268,4.84666 2.51522,6.35106 7.5501,6.35106 6.17085,0 8.86417,0.71312 8.86417,2.347 0,2.43801 -7.06019,3.52644 -15.82106,2.43905 z"
       id="path2081"
       transform="matrix(7.5,0,0,-7.5,0,7260)" />
    <path
       style="fill:#7FFFD3;fill-opacity:1;stroke-width:0.762509"
       d="m 689.07629,721.62098 c -0.8957,-0.33134 -1.89617,-1.5609 -2.22325,-2.73235 -0.32708,-1.17145 -0.59469,-13.14326 -0.59469,-26.60403 0,-28.79538 -0.38681,-27.36424 7.24837,-26.81795 6.43946,0.46075 9.89387,2.15072 15.39093,7.5296 11.90609,11.65011 12.31295,29.27757 0.93829,40.65223 -5.451,5.451 -16.30637,9.61988 -20.75965,7.9725 z m 11.88015,-7.59952 c 5.67695,-3.70932 8.09833,-6.68162 10.11315,-12.41415 4.11348,-11.70359 -0.65013,-23.7675 -11.58825,-29.34737 -3.4786,-1.77455 -5.53133,-2.39843 -6.6858,-2.03202 l -1.66598,0.52877 0.23317,21.93217 c 0.28974,27.25199 0.34529,27.37551 9.59371,21.3326 z"
       id="path2120"
       transform="matrix(7.5,0,0,-7.5,0,7260)" />
    <path
       style="fill:#7FFFD3;fill-opacity:1;stroke-width:0.762509"
       d="m 767.46781,719.05209 c -0.8568,-2.25354 -0.94674,-36.0118 -0.12235,-45.91877 0.28662,-3.44435 0.9609,-6.70223 1.4984,-7.23973 1.31313,-1.31313 11.9293,-1.74331 15.99627,-0.64819 3.45725,0.93095 4.17989,2.52297 1.73832,3.82966 -0.81119,0.43414 -3.89145,0.78934 -6.84501,0.78934 -4.74113,0 -5.49643,0.20095 -6.44857,1.71564 -2.03972,3.24486 -2.20805,21.97501 -0.2154,23.96766 0.30231,0.30231 2.76481,0.77893 5.47222,1.05915 5.07452,0.52524 7.87411,1.88791 6.56605,3.19598 -0.39749,0.39748 -3.20102,0.99475 -6.23008,1.32725 -3.15212,0.34602 -5.81157,1.04535 -6.2187,1.63527 -0.39124,0.56689 -0.54479,3.97654 -0.34123,7.57699 0.39394,6.96784 -0.4127,10.01389 -2.77217,10.46828 -0.8473,0.16317 -1.58427,-0.46057 -2.07775,-1.75853 z"
       id="path2159"
       transform="matrix(7.5,0,0,-7.5,0,7260)" />
    <path
       style="fill:#7FFFD3;fill-opacity:1;stroke-width:0.762509"
       d="m 794.66175,720.44418 c -1.30154,-1.30154 0.0425,-4.84069 7.34723,-19.3476 4.32056,-8.58041 8.35233,-16.67274 8.95948,-17.98296 3.54935,-7.65941 8.56788,-16.43159 9.63465,-16.84095 0.7882,-0.30246 1.78159,0.19457 2.73348,1.36767 3.31495,4.08529 26.08749,51.33411 25.33126,52.55771 -0.95498,1.5452 -5.71385,0.57545 -5.71385,-1.16435 0,-0.54624 -1.71669,-4.42231 -3.81487,-8.6135 -3.20125,-6.39461 -4.20075,-7.75486 -6.21386,-8.45663 -1.33988,-0.46709 -7.48238,-0.82941 -13.91346,-0.82071 l -11.51449,0.0156 -3.92926,8.1814 c -4.63407,9.64893 -7.18333,12.82734 -8.90631,11.10435 z m 34.13619,-23.87308 c 2.86562,-1.08951 2.52622,-3.68245 -1.539,-11.75784 -3.69354,-7.33705 -5.30613,-9.6113 -6.81505,-9.6113 -0.77532,0 -5.70273,9.66152 -5.70273,11.18175 0,0.27126 -0.88002,1.64696 -1.95559,3.05711 -2.4876,3.26141 -2.29721,6.44315 0.43057,7.19587 2.93873,0.81093 13.39211,0.76693 15.5818,-0.0656 z"
       id="path2198"
       transform="matrix(7.5,0,0,-7.5,0,7260)" />
    <path
       style="fill:#7FFFD3;fill-opacity:1;stroke-width:0.762509"
       d="m 863.72263,693.31156 0.20038,-26.87845 2.85941,-0.23666 2.85941,-0.23666 v 27.11511 27.11511 h -3.05979 -3.05979 z"
       id="path2237"
       transform="matrix(7.5,0,0,-7.5,0,7260)" />
    <path
       style="fill:#7FFFD3;fill-opacity:1;stroke-width:0.762509"
       d="m 888.1417,719.70401 c -0.3195,-0.78115 -0.5809,-12.98851 -0.5809,-27.12747 0,-23.43579 0.11753,-25.82475 1.33025,-27.03771 3.04265,-3.04324 13.54079,2.53683 18.0795,9.60979 5.82449,9.07668 3.22006,16.59427 -8.50827,24.55883 l -4.5321,3.07769 8.11015,8.31661 c 4.46058,4.57413 7.89681,8.66179 7.63606,9.08368 -0.26074,0.4219 -1.38135,0.76709 -2.49024,0.76709 -1.52556,0 -3.43612,-1.48434 -7.85167,-6.10007 -7.74224,-8.09324 -9.2268,-8.0894 -8.5256,0.0221 0.28202,3.26239 0.0873,4.44586 -0.86091,5.23282 -1.04339,0.86593 -1.31163,0.80604 -1.80627,-0.40331 z m 11.24397,-25.26588 c 5.90392,-5.90392 6.01378,-15.87404 0.23497,-21.32415 -2.75347,-2.59686 -6.0225,-3.2631 -7.71354,-1.57206 -1.16114,1.16113 -1.26975,22.1602 -0.12567,24.29792 1.28511,2.40127 4.36989,1.83264 7.60424,-1.40171 z"
       id="path2276"
       transform="matrix(7.5,0,0,-7.5,0,7260)" />
    <path
       style="fill:#7FFFD3;fill-opacity:1;stroke-width:0.762509"
       d="m 938.34294,720.46192 c -1.74852,-1.22471 -1.78754,-1.48217 -1.30105,-8.58297 0.54994,-8.02678 -0.28454,-14.17037 -2.49611,-18.37676 -1.32864,-2.52707 -2.93524,-5.53443 -9.54012,-17.8579 -3.19198,-5.95562 -3.53216,-9.97369 -0.84442,-9.97369 1.1988,0 2.8684,2.60167 7.80502,12.16221 3.454,6.68922 6.78229,12.6645 7.3962,13.27841 1.39402,1.39402 3.09545,0.21544 3.81232,-2.6408 0.87359,-3.48066 8.58549,-19.13598 10.243,-20.79348 2.04598,-2.04598 4.67512,-2.15868 4.67512,-0.20039 0,0.78358 -2.74846,6.53099 -6.1077,12.77203 -8.78096,16.3139 -9.24978,17.76398 -9.81204,30.34876 -0.27253,6.09973 -0.80454,10.72299 -1.25092,10.87049 -0.42719,0.14117 -1.58788,-0.31149 -2.5793,-1.00591 z"
       id="path2315"
       transform="matrix(7.5,0,0,-7.5,0,7260)" />
    <path
       style="fill:#7FFFD3;fill-opacity:1;stroke-width:0.762509"
       d="m 1007.5905,720.49252 c -1.2515,-1.5078 -2.0476,-16.30006 -2.1546,-40.03788 l -0.067,-14.95382 2.0969,0.38915 c 1.1533,0.21404 2.349,0.76693 2.6571,1.22865 0.3081,0.46173 0.5707,6.6727 0.5835,13.80216 0.013,7.12946 0.3482,13.47735 0.7452,14.10642 0.5955,0.94348 3.4831,1.18495 16.4903,1.37895 10.813,0.16128 16.0339,-0.0303 16.6135,-0.6096 0.5324,-0.53215 0.9252,-5.55746 1.0614,-13.5791 0.2614,-15.40329 0.4183,-16.34469 2.6702,-16.02447 1.4234,0.20241 1.7486,0.83893 2.0699,4.05267 0.6912,6.9122 -0.3426,49.06693 -1.2249,49.9493 -1.5858,1.58578 -2.6738,-1.33087 -3.1314,-8.39492 -0.6648,-10.26139 -0.6245,-10.23028 -13.6841,-10.54928 -5.8045,-0.14178 -12.9556,-0.0349 -15.8912,0.23762 l -5.3376,0.49541 v 8.69358 c 0,6.91978 -0.2467,8.94052 -1.2093,9.90389 -1.1044,1.1054 -1.3027,1.09771 -2.2875,-0.0887 z"
       id="path2354"
       transform="matrix(7.5,0,0,-7.5,0,7260)" />
    <path
       style="fill:#7FFFD3;fill-opacity:1;stroke-width:0.762509"
       d="m 1173.143,717.3306 c -2.3698,-2.41143 -5.0399,-5.41382 -5.9337,-6.67196 -1.3534,-1.90522 -1.8554,-2.14699 -3.0038,-1.44665 -1.0284,0.62718 -1.4757,2.11329 -1.7601,5.84775 -0.7543,9.90644 -3.0423,7.50182 -3.9737,-4.17636 -0.7862,-9.85659 -0.4498,-42.27158 0.459,-44.23062 0.867,-1.86891 2.9896,-2.32609 6.4606,-1.39146 6.8861,1.85424 14.1158,9.06132 16.2562,16.20537 0.8479,2.82981 0.7508,3.39027 -1.2491,7.20992 -1.9429,3.7109 -3.8794,5.7281 -12.0003,12.49999 -3.0124,2.51202 -2.4844,3.58595 4.6209,9.39904 7.2345,5.91877 9.453,9.55127 6.5205,10.67657 -1.857,0.71259 -1.8206,0.73491 -6.3965,-3.92159 z m -3.0976,-22.01806 c 5.9758,-5.02831 7.1605,-14.22268 2.5652,-19.90824 -1.2763,-1.57912 -3.4258,-3.51865 -4.7767,-4.31007 -2.2999,-1.34738 -2.5373,-1.35744 -3.7317,-0.15817 -1.0789,1.08336 -1.2733,3.02344 -1.2607,12.58661 0.015,11.82523 0.5076,13.79206 3.4513,13.79206 0.7552,0 2.4439,-0.90098 3.7526,-2.00219 z"
       id="path2393"
       transform="matrix(7.5,0,0,-7.5,0,7260)" />
    <path
       style="fill:#7FFFD3;fill-opacity:1;stroke-width:0.762509"
       d="m 1134.9951,693.45154 v -27.50098 l 2.0528,0.24127 c 1.612,0.18946 2.1955,0.79548 2.7171,2.82197 0.3654,1.41939 0.5568,13.35598 0.4254,26.52577 -0.2537,25.4106 -0.2474,25.36965 -3.861,25.40127 -1.2464,0.0109 -1.3343,-1.80178 -1.3343,-27.4893 z"
       id="path2432"
       transform="matrix(7.5,0,0,-7.5,0,7260)" />
    <path
       style="fill:#7FFFD3;fill-opacity:1;stroke-width:0.762509"
       d="m 1066.0862,719.7897 c -0.724,-1.88671 24.5471,-54.50036 26.1773,-54.50036 1.2815,0 4.8273,4.98534 6.7674,9.51493 2.3328,5.4462 13.3017,27.41241 17.6497,35.3449 3.1357,5.72095 3.8859,9.5624 2.008,10.28299 -1.9974,0.76648 -3.9094,-1.621 -8.0662,-10.07222 l -4.1661,-8.47015 h -13.7908 -13.7908 l -3.0121,6.22192 c -5.5576,11.48015 -8.5025,14.99783 -9.7764,11.67799 z m 35.337,-23.20806 c 0.9601,-0.60722 0.9809,-1.23886 0.1437,-4.37275 -1.1356,-4.25116 -7.7272,-17.13531 -8.9773,-17.54723 -1.06,-0.34929 -10.2029,17.06371 -10.2057,19.43698 0,1.09316 0.6359,1.99663 1.7137,2.42982 2.2757,0.91476 15.8971,0.95656 17.3256,0.0532 z"
       id="path2471"
       transform="matrix(7.5,0,0,-7.5,0,7260)" />
  </g>
</svg>
